<?xml version="1.0" standalone="no"?>
<!DOCTYPE svg PUBLIC "-//W3C//DTD SVG 20010904//EN"
 "http://www.w3.org/TR/2001/REC-SVG-20010904/DTD/svg10.dtd">
<svg version="1.0" xmlns="http://www.w3.org/2000/svg"
 width="850.000000pt" height="850.000000pt" viewBox="0 0 850.000000 850.000000"
 preserveAspectRatio="xMidYMid meet">

<g transform="translate(0.000000,850.000000) scale(0.100000,-0.100000)"
fill="#000000" stroke="none">
<path d="M2454 7196 c-3 -8 -4 -23 -2 -33 3 -17 22 -18 275 -21 261 -2 273 -2
283 17 7 15 6 23 -6 35 -22 23 -542 24 -550 2z m535 -5 c8 -5 11 -16 8 -25 -6
-14 -37 -16 -266 -16 -262 0 -287 3 -261 35 10 12 55 15 259 15 135 0 252 -4
260 -9z"/>
<path d="M5244 7128 c-2 -4 0 -9 5 -12 4 -3 309 -6 677 -5 368 0 706 0 752 -1
l82 0 0 -175 c0 -110 4 -175 10 -175 6 0 10 1 10 3 0 1 3 75 7 164 5 141 4
165 -11 187 l-16 26 -756 -3 c-416 -1 -758 -5 -760 -9z"/>
<path d="M3727 7103 c-4 -3 -7 -28 -7 -55 l0 -48 554 0 c496 0 554 2 560 16
10 26 7 69 -6 82 -9 9 -146 12 -553 12 -298 0 -545 -3 -548 -7z m1081 -12 c7
0 12 -16 12 -41 l0 -40 -542 2 -543 3 -3 37 -3 38 258 2 c250 3 795 2 821 -1z"/>
<path d="M2538 7083 c29 -2 74 -2 100 0 26 2 2 3 -53 3 -55 0 -76 -1 -47 -3z"/>
<path d="M2553 7023 c48 -2 126 -2 175 0 48 1 8 3 -88 3 -96 0 -136 -2 -87 -3z"/>
<path d="M2883 7023 c9 -2 23 -2 30 0 6 3 -1 5 -18 5 -16 0 -22 -2 -12 -5z"/>
<path d="M1936 7004 c-11 -28 -7 -814 4 -814 6 0 11 146 12 403 l3 402 183 3
c110 1 182 6 182 12 0 6 -73 10 -189 10 -163 0 -190 -2 -195 -16z"/>
<path d="M3140 7010 c0 -6 35 -10 85 -10 50 0 85 4 85 10 0 6 -35 10 -85 10
-50 0 -85 -4 -85 -10z"/>
<path d="M2537 6943 c105 -2 281 -2 390 0 109 1 23 2 -192 2 -214 0 -304 -1
-198 -2z"/>
<path d="M4172 6895 c0 -16 2 -22 5 -12 2 9 2 23 0 30 -3 6 -5 -1 -5 -18z"/>
<path d="M2470 6885 c-6 -8 -9 -23 -5 -35 6 -19 14 -20 115 -20 94 0 111 2
119 18 6 11 6 24 0 35 -9 14 -26 17 -113 17 -78 0 -106 -4 -116 -15z m215 -20
c0 -18 -8 -20 -99 -23 -101 -3 -124 4 -113 33 6 13 23 15 109 13 95 -3 103 -4
103 -23z"/>
<path d="M2760 6885 c-6 -8 -9 -23 -5 -35 6 -19 14 -20 115 -20 94 0 111 2
119 18 6 11 6 24 0 35 -9 14 -26 17 -113 17 -78 0 -106 -4 -116 -15z m215 -20
c0 -18 -8 -20 -99 -23 -101 -3 -124 4 -113 33 6 13 23 15 109 13 95 -3 103 -4
103 -23z"/>
<path d="M4172 6830 c0 -14 2 -19 5 -12 2 6 2 18 0 25 -3 6 -5 1 -5 -13z"/>
<path d="M5480 6741 c0 -100 0 -101 -24 -101 -14 0 -27 -4 -30 -8 -4 -7 89
-132 98 -132 7 0 85 108 88 121 2 7 -8 15 -21 18 -22 6 -23 10 -25 101 l-1 95
-42 3 -43 3 0 -100z m68 -18 c-2 -94 -1 -98 20 -101 22 -3 21 -5 -10 -49 l-33
-45 -37 44 c-36 43 -37 43 -12 46 24 3 24 5 24 103 0 99 0 99 25 99 l25 0 -2
-97z"/>
<path d="M4172 6765 c0 -16 2 -22 5 -12 2 9 2 23 0 30 -3 6 -5 -1 -5 -18z"/>
<path d="M4586 6708 c-12 -17 -16 -50 -16 -138 l0 -115 -115 3 c-78 3 -115 0
-115 -7 0 -7 39 -11 115 -11 l115 0 0 -143 c0 -108 4 -148 14 -163 13 -17 30
-19 198 -22 211 -4 264 1 278 28 15 27 14 558 -1 576 -9 11 -55 14 -235 14
-219 0 -223 0 -238 -22z m456 -5 c17 -15 18 -37 18 -272 0 -216 -2 -260 -16
-279 -15 -22 -20 -22 -223 -22 -171 0 -211 3 -221 15 -9 10 -12 85 -11 282 1
238 3 269 18 281 12 9 72 12 217 12 172 0 202 -2 218 -17z"/>
<path d="M4786 6604 c-21 -21 -20 -47 2 -67 23 -21 46 -22 66 -1 31 30 9 84
-34 84 -10 0 -26 -7 -34 -16z m62 -6 c18 -18 14 -46 -7 -58 -25 -13 -48 -4
-56 21 -12 38 35 65 63 37z"/>
<path d="M4992 6480 c0 -14 2 -19 5 -12 2 6 2 18 0 25 -3 6 -5 1 -5 -13z"/>
<path d="M4640 6345 l0 -25 180 0 180 0 0 25 0 25 -180 0 -180 0 0 -25z m350
0 c0 -13 -26 -15 -170 -15 -144 0 -170 2 -170 15 0 13 26 15 170 15 144 0 170
-2 170 -15z"/>
<path d="M4642 6263 l3 -28 155 -2 c186 -3 200 -1 200 32 l0 25 -181 0 -180 0
3 -27z m348 2 c0 -13 -26 -15 -170 -15 -144 0 -170 2 -170 15 0 13 26 15 170
15 144 0 170 -2 170 -15z"/>
<path d="M4172 6700 c0 -14 2 -19 5 -12 2 6 2 18 0 25 -3 6 -5 1 -5 -13z"/>
<path d="M7423 6605 c0 -27 2 -38 4 -22 2 15 2 37 0 50 -2 12 -4 0 -4 -28z"/>
<path d="M6892 6588 c-7 -7 -12 -43 -12 -90 l0 -78 -129 0 c-76 0 -132 -4
-136 -10 -4 -6 42 -10 129 -10 l136 0 0 -89 c0 -50 4 -92 9 -95 5 -3 48 -7 95
-8 l85 -2 3 -66 3 -65 83 -3 c74 -3 82 -5 82 -22 0 -11 5 -20 10 -20 6 0 10 9
10 20 0 17 8 19 83 22 l82 3 0 100 0 100 -65 1 -65 1 60 -6 60 -6 0 -90 0 -90
-165 0 -165 0 0 90 0 90 60 6 60 6 -65 -1 c-63 -1 -65 -2 -68 -28 l-3 -28 -85
0 -84 0 2 183 3 182 85 6 85 5 -85 2 c-56 1 -90 -2 -98 -10z"/>
<path d="M6295 6530 l-30 -5 -3 -114 c-2 -85 1 -117 10 -123 18 -11 260 -10
278 2 12 7 15 32 15 114 0 64 -4 109 -11 116 -12 12 -208 20 -259 10z m250
-120 l0 -105 -135 0 -135 0 -3 94 c-1 52 0 101 2 108 4 11 34 13 138 11 l133
-3 0 -105z"/>
<path d="M2798 6503 l-3 -28 -92 2 c-101 3 -117 -5 -111 -54 l3 -28 103 -3
102 -3 0 -29 c0 -17 2 -30 5 -30 12 0 125 94 125 104 0 9 -96 83 -121 94 -4 2
-9 -9 -11 -25z m74 -100 c-35 -30 -63 -42 -61 -25 5 29 -4 32 -102 32 -98 0
-100 0 -97 23 3 24 -1 23 151 26 50 1 57 3 57 21 0 19 4 18 44 -12 l45 -33
-37 -32z"/>
<path d="M5777 6483 c-4 -3 -7 -57 -7 -120 l0 -113 -108 0 c-165 0 -152 25
-152 -309 0 -257 1 -279 18 -294 10 -10 26 -17 36 -17 11 0 16 -6 14 -17 -3
-15 -17 -18 -96 -21 -73 -2 -92 -6 -92 -17 0 -13 16 -14 97 -9 54 3 101 8 105
11 5 2 8 15 8 29 l0 24 138 0 c121 0 141 2 155 18 14 15 17 56 19 291 l2 274
-23 18 c-14 11 -39 19 -62 19 l-39 0 0 110 0 110 145 0 c90 0 145 4 145 10 0
11 -292 14 -303 3z m113 -272 c16 -30 13 -522 -3 -545 -11 -15 -33 -17 -176
-17 -94 -1 -167 3 -173 9 -6 6 -12 121 -15 274 -5 240 -4 265 11 281 15 15 40
17 181 17 152 0 165 -1 175 -19z"/>
<path d="M5552 5773 l3 -28 155 0 155 0 3 28 3 27 -161 0 -161 0 3 -27z m298
-3 c0 -19 -7 -20 -140 -20 -133 0 -140 1 -140 20 0 19 7 20 140 20 133 0 140
-1 140 -20z"/>
<path d="M3794 6456 c-3 -8 -4 -23 -2 -33 3 -17 18 -18 208 -18 l205 0 0 30 0
30 -203 3 c-170 2 -203 0 -208 -12z m404 -23 c-3 -16 -20 -18 -198 -18 -177 0
-195 2 -198 18 -3 16 12 17 198 17 186 0 201 -1 198 -17z"/>
<path d="M3693 6353 c9 -2 23 -2 30 0 6 3 -1 5 -18 5 -16 0 -22 -2 -12 -5z"/>
<path d="M3790 6330 l0 -30 210 0 210 0 0 30 0 30 -210 0 -210 0 0 -30z m410
0 c0 -19 -7 -20 -200 -20 -160 0 -200 3 -200 13 0 8 3 17 7 20 3 4 93 7 200 7
186 0 193 -1 193 -20z"/>
<path d="M3703 6303 c9 -2 23 -2 30 0 6 3 -1 5 -18 5 -16 0 -22 -2 -12 -5z"/>
<path d="M7258 6213 c7 -3 16 -2 19 1 4 3 -2 6 -13 5 -11 0 -14 -3 -6 -6z"/>
<path d="M6253 6184 c-3 -9 -2 -24 4 -33 8 -13 35 -16 155 -19 156 -3 177 3
163 48 -6 19 -14 20 -161 20 -134 0 -155 -2 -161 -16z m305 -16 c3 -17 -9 -18
-141 -18 -79 0 -146 3 -150 6 -3 3 -3 12 0 20 4 12 32 14 147 12 125 -3 141
-5 144 -20z"/>
<path d="M6620 6171 c0 -7 21 -11 53 -11 28 0 58 -4 66 -9 11 -7 13 -50 12
-220 -1 -142 1 -211 8 -211 18 0 15 411 -3 435 -16 22 -136 36 -136 16z"/>
<path d="M7124 6139 c-10 -17 13 -36 27 -22 12 12 4 33 -11 33 -5 0 -12 -5
-16 -11z m26 -9 c0 -5 -4 -10 -10 -10 -5 0 -10 5 -10 10 0 6 5 10 10 10 6 0
10 -4 10 -10z"/>
<path d="M7228 6123 c29 -2 74 -2 100 0 26 2 2 3 -53 3 -55 0 -76 -1 -47 -3z"/>
<path d="M1315 6077 c-22 -34 -18 -463 5 -477 8 -5 99 -10 201 -10 l187 0 -26
-62 c-22 -53 -26 -78 -27 -163 0 -92 3 -105 32 -167 42 -90 110 -160 192 -201
61 -30 72 -32 171 -32 99 0 110 2 172 33 80 39 154 116 189 196 l24 56 150 0
c104 0 155 4 163 12 13 13 18 371 6 402 -3 9 -16 16 -28 16 -19 -1 -19 -2 -3
-11 15 -9 17 -30 17 -204 l0 -194 -42 -3 c-24 -2 -108 -1 -188 2 l-145 5 -3
175 c-1 96 0 185 3 198 5 22 8 22 170 22 91 0 165 3 165 8 0 4 -75 6 -167 5
-137 -1 -169 -4 -179 -17 -9 -13 -14 -12 -38 13 -15 16 -57 44 -93 62 -58 29
-75 33 -156 35 l-92 2 91 -7 c103 -9 170 -35 242 -96 l42 -36 -1 -181 c0 -191
4 -208 47 -208 31 0 30 -10 -8 -82 -37 -70 -102 -131 -178 -167 -48 -23 -68
-26 -160 -26 -99 0 -110 2 -172 33 -188 93 -270 339 -178 535 l22 47 109 0
c98 0 109 2 119 20 7 13 11 99 10 232 0 172 -3 216 -15 235 l-15 23 -300 0
-300 0 -15 -23z m613 -9 c13 -13 18 -411 6 -442 -5 -14 -42 -16 -304 -16 -262
0 -299 2 -304 16 -12 31 -7 429 6 442 9 9 89 12 298 12 209 0 289 -3 298 -12z"/>
<path d="M1400 5980 l0 -30 228 2 227 3 3 28 3 27 -230 0 -231 0 0 -30z m440
0 c0 -19 -7 -20 -215 -20 -208 0 -215 1 -215 20 0 19 7 20 215 20 208 0 215
-1 215 -20z"/>
<path d="M2149 6061 c-20 -20 -29 -39 -29 -61 0 -22 9 -41 29 -61 l29 -29 319
2 318 2 -310 6 c-330 5 -347 8 -365 56 -13 34 3 70 39 89 43 22 1243 23 1296
1 37 -16 52 -48 41 -88 -12 -50 -28 -53 -376 -58 l-325 -6 323 -2 c272 -2 328
0 352 13 58 30 67 90 21 136 l-29 29 -652 0 -652 0 -29 -29z"/>
<path d="M6371 6054 c0 -11 3 -14 6 -6 3 7 2 16 -1 19 -3 4 -6 -2 -5 -13z"/>
<path d="M2787 6032 c-22 -25 -21 -45 3 -67 41 -37 102 24 64 66 -22 24 -46
24 -67 1z m58 -32 c0 -18 -6 -26 -23 -28 -13 -2 -25 3 -28 12 -10 26 4 48 28
44 17 -2 23 -10 23 -28z"/>
<path d="M7237 6003 c-4 -3 -7 -11 -7 -17 0 -6 5 -5 12 2 6 6 9 14 7 17 -3 3
-9 2 -12 -2z"/>
<path d="M6855 5960 c-3 -5 1 -10 9 -10 9 0 16 5 16 10 0 6 -4 10 -9 10 -6 0
-13 -4 -16 -10z"/>
<path d="M6910 5960 c0 -5 9 -10 20 -10 11 0 20 5 20 10 0 6 -9 10 -20 10 -11
0 -20 -4 -20 -10z"/>
<path d="M6980 5960 c0 -5 7 -10 15 -10 8 0 15 5 15 10 0 6 -7 10 -15 10 -8 0
-15 -4 -15 -10z"/>
<path d="M7050 5960 c0 -5 7 -10 15 -10 8 0 15 5 15 10 0 6 -7 10 -15 10 -8 0
-15 -4 -15 -10z"/>
<path d="M7110 5960 c0 -5 9 -10 20 -10 11 0 20 5 20 10 0 6 -9 10 -20 10 -11
0 -20 -4 -20 -10z"/>
<path d="M7188 5963 c6 -2 18 -2 25 0 6 3 1 5 -13 5 -14 0 -19 -2 -12 -5z"/>
<path d="M6817 5933 c-10 -9 -9 -23 2 -23 5 0 11 7 15 15 5 15 -5 20 -17 8z"/>
<path d="M6810 5865 c0 -8 5 -15 10 -15 6 0 10 7 10 15 0 8 -4 15 -10 15 -5 0
-10 -7 -10 -15z"/>
<path d="M6810 5800 c0 -11 5 -20 10 -20 6 0 10 9 10 20 0 11 -4 20 -10 20 -5
0 -10 -9 -10 -20z"/>
<path d="M6814 5749 c-3 -6 -1 -16 5 -22 8 -8 11 -5 11 11 0 24 -5 28 -16 11z"/>
<path d="M3980 5702 c-18 -15 -22 -28 -22 -65 l1 -47 -114 0 c-70 0 -115 -4
-115 -10 0 -6 44 -10 113 -10 l112 0 1 -87 c2 -130 -17 -123 336 -123 285 0
320 3 340 34 4 6 8 48 8 94 l0 82 115 0 c70 0 115 4 115 10 0 6 -45 10 -115
10 l-115 0 0 43 c0 85 12 82 -333 85 -283 3 -305 2 -327 -16z m628 -14 c17
-17 17 -279 0 -296 -9 -9 -92 -12 -313 -12 -221 0 -304 3 -313 12 -17 17 -17
279 0 296 9 9 92 12 313 12 221 0 304 -3 313 -12z"/>
<path d="M4010 5624 c-10 -11 -11 -20 -3 -32 8 -14 32 -17 144 -20 166 -3 181
0 177 36 l-3 27 -151 3 c-129 2 -153 0 -164 -14z m294 0 c9 -3 16 -12 16 -19
0 -21 -25 -25 -160 -25 -129 0 -148 5 -136 35 4 12 31 15 135 15 71 0 136 -3
145 -6z"/>
<path d="M4253 5503 c26 -2 68 -2 95 0 26 2 4 3 -48 3 -52 0 -74 -1 -47 -3z"/>
<path d="M6626 5712 c-2 -4 14 -6 37 -4 68 5 76 10 20 11 -28 0 -54 -2 -57 -7z"/>
<path d="M6873 5713 c9 -2 25 -2 35 0 9 3 1 5 -18 5 -19 0 -27 -2 -17 -5z"/>
<path d="M6938 5713 c7 -3 16 -2 19 1 4 3 -2 6 -13 5 -11 0 -14 -3 -6 -6z"/>
<path d="M2852 5675 c0 -16 2 -22 5 -12 2 9 2 23 0 30 -3 6 -5 -1 -5 -18z"/>
<path d="M2957 5683 c-4 -3 -7 -19 -7 -35 0 -27 2 -28 45 -28 45 0 45 0 45 35
0 34 -1 35 -38 35 -21 0 -42 -3 -45 -7z m73 -28 c0 -10 -11 -15 -35 -15 -24 0
-35 5 -35 15 0 10 11 15 35 15 24 0 35 -5 35 -15z"/>
<path d="M3531 5664 c0 -11 3 -14 6 -6 3 7 2 16 -1 19 -3 4 -6 -2 -5 -13z"/>
<path d="M5253 5635 c0 -22 2 -30 4 -17 2 12 2 30 0 40 -3 9 -5 -1 -4 -23z"/>
<path d="M6722 5663 c37 -2 100 -2 140 0 40 1 10 3 -67 3 -77 0 -110 -1 -73
-3z"/>
<path d="M6973 5620 c0 -30 2 -43 4 -27 2 15 2 39 0 55 -2 15 -4 2 -4 -28z"/>
<path d="M2853 5600 c0 -25 2 -35 4 -22 2 12 2 32 0 45 -2 12 -4 2 -4 -23z"/>
<path d="M4930 5601 c0 -6 4 -13 10 -16 6 -3 7 1 4 9 -7 18 -14 21 -14 7z"/>
<path d="M2950 5540 c0 -29 2 -30 45 -30 43 0 45 1 45 30 0 29 -2 30 -45 30
-43 0 -45 -1 -45 -30z m80 0 c0 -16 -7 -20 -35 -20 -28 0 -35 4 -35 20 0 16 7
20 35 20 28 0 35 -4 35 -20z"/>
<path d="M2853 5490 c0 -36 2 -50 4 -32 2 17 2 47 0 65 -2 17 -4 3 -4 -33z"/>
<path d="M3653 5475 c0 -22 2 -30 4 -17 2 12 2 30 0 40 -3 9 -5 -1 -4 -23z"/>
<path d="M5022 5490 c-95 -58 -97 -202 -3 -266 26 -18 49 -24 88 -24 28 0 54
4 57 8 3 5 -18 7 -47 4 -42 -3 -58 1 -87 20 -90 61 -91 185 -1 245 45 31 98
30 145 -2 42 -29 54 -32 35 -9 -38 46 -131 58 -187 24z"/>
<path d="M5230 5445 c0 -7 61 -37 66 -33 2 3 -12 12 -31 21 -19 9 -35 15 -35
12z"/>
<path d="M3052 5413 c108 -2 288 -2 400 0 112 1 23 2 -197 2 -220 0 -311 -1
-203 -2z"/>
<path d="M5240 5395 c25 -13 50 -24 55 -24 6 0 -10 11 -35 24 -25 13 -49 24
-55 24 -5 0 10 -11 35 -24z"/>
<path d="M2853 5345 c0 -33 2 -45 4 -27 2 18 2 45 0 60 -2 15 -4 0 -4 -33z"/>
<path d="M5170 5395 c0 -7 121 -67 126 -63 2 2 -26 18 -61 36 -36 17 -65 30
-65 27z"/>
<path d="M5210 5330 c30 -16 60 -29 65 -29 6 0 -15 13 -45 29 -30 16 -59 29
-65 29 -5 0 15 -13 45 -29z"/>
<path d="M1993 5336 c-73 -13 -82 -20 -60 -44 16 -17 13 -22 -48 -82 -36 -36
-65 -69 -65 -75 0 -7 11 -22 25 -35 l26 -24 68 68 c68 68 69 68 94 51 31 -20
32 -16 43 88 5 53 4 67 -7 66 -8 -1 -42 -7 -76 -13z m61 -70 c-7 -55 -7 -56
-26 -39 -18 16 -22 14 -92 -56 -65 -64 -74 -70 -86 -56 -12 14 -5 25 56 86 61
62 67 71 57 89 -12 17 -9 20 25 25 20 4 44 7 52 9 21 3 21 4 14 -58z"/>
<path d="M5615 5294 c-33 -25 -60 -49 -60 -54 0 -10 113 -100 126 -100 5 0 9
14 9 30 l0 30 100 0 100 0 0 40 0 40 -100 0 c-99 0 -100 0 -100 24 0 14 -3 27
-8 30 -4 2 -34 -16 -67 -40z m58 -14 c5 -18 14 -20 101 -20 89 0 96 -1 96 -20
0 -18 -8 -20 -97 -22 -93 -3 -98 -4 -101 -25 -3 -22 -4 -22 -47 10 -24 17 -44
34 -44 37 -1 6 71 59 80 60 4 0 9 -9 12 -20z"/>
<path d="M5230 5280 c19 -11 40 -19 45 -19 6 0 -6 8 -25 19 -19 11 -39 19 -45
19 -5 0 6 -8 25 -19z"/>
<path d="M2852 5255 c0 -16 2 -22 5 -12 2 9 2 23 0 30 -3 6 -5 -1 -5 -18z"/>
<path d="M5200 5255 c25 -13 50 -24 55 -24 6 0 -10 11 -35 24 -25 13 -49 24
-55 24 -5 0 10 -11 35 -24z"/>
<path d="M5190 5223 c8 -3 24 -10 35 -15 20 -9 20 -9 1 6 -11 9 -27 16 -35 15
-14 0 -14 -1 -1 -6z"/>
<path d="M2908 5173 c7 -3 16 -2 19 1 4 3 -2 6 -13 5 -11 0 -14 -3 -6 -6z"/>
<path d="M3063 5173 c20 -2 54 -2 75 0 20 2 3 4 -38 4 -41 0 -58 -2 -37 -4z"/>
<path d="M3193 5173 c9 -2 23 -2 30 0 6 3 -1 5 -18 5 -16 0 -22 -2 -12 -5z"/>
<path d="M5100 5095 c-6 -8 -10 -22 -8 -32 3 -16 16 -18 118 -18 102 0 115 2
118 18 7 38 -15 47 -118 47 -73 0 -101 -4 -110 -15z m207 -8 c7 -4 10 -14 6
-22 -8 -22 -198 -22 -207 0 -3 8 2 19 11 23 19 11 173 10 190 -1z"/>
<path d="M2344 5046 c-18 -14 -19 -29 -19 -356 0 -327 1 -342 19 -356 16 -11
82 -14 360 -14 197 0 347 4 356 10 13 8 16 54 20 281 6 323 1 426 -20 439 -9
6 -159 10 -356 10 -278 0 -344 -3 -360 -14z m714 -18 c9 -8 12 -88 12 -338 0
-292 -2 -329 -17 -341 -25 -22 -658 -24 -690 -3 l-23 14 0 329 c0 260 3 331
13 339 25 21 680 20 705 0z"/>
<path d="M2468 4943 c6 -2 18 -2 25 0 6 3 1 5 -13 5 -14 0 -19 -2 -12 -5z"/>
<path d="M2547 4943 c18 -2 50 -2 70 0 21 2 7 4 -32 4 -38 0 -55 -2 -38 -4z"/>
<path d="M2738 4943 c7 -3 16 -2 19 1 4 3 -2 6 -13 5 -11 0 -14 -3 -6 -6z"/>
<path d="M2803 4943 c9 -2 25 -2 35 0 9 3 1 5 -18 5 -19 0 -27 -2 -17 -5z"/>
<path d="M2868 4943 c6 -2 18 -2 25 0 6 3 1 5 -13 5 -14 0 -19 -2 -12 -5z"/>
<path d="M2923 4943 c9 -2 23 -2 30 0 6 3 -1 5 -18 5 -16 0 -22 -2 -12 -5z"/>
<path d="M2447 4863 c-4 -3 -7 -33 -7 -65 l0 -58 265 0 265 0 0 65 0 65 -258
0 c-142 0 -262 -3 -265 -7z m513 -58 l0 -55 -255 0 -255 0 0 48 c0 27 3 52 7
55 3 4 118 7 255 7 l248 0 0 -55z"/>
<path d="M2444 4666 c-3 -7 -4 -38 -2 -67 l3 -54 260 0 260 0 0 65 0 65 -258
3 c-212 2 -258 0 -263 -12z m514 -53 l3 -52 -208 -3 c-114 -2 -229 -2 -255 0
l-48 3 0 48 c0 26 3 51 7 55 4 3 117 5 252 4 l246 -3 3 -52z"/>
<path d="M6080 5033 c-14 -9 -31 -25 -38 -35 -7 -10 -17 -16 -22 -13 -5 3 -15
-3 -22 -13 -7 -10 -21 -21 -30 -25 -15 -5 -18 -19 -18 -80 0 -71 -1 -76 -36
-113 -39 -41 -67 -97 -78 -155 -13 -70 -14 -69 185 -69 176 0 180 0 188 22 16
45 -25 152 -78 202 -17 17 -31 33 -31 38 0 4 35 8 79 8 l78 0 354 -170 c195
-94 357 -174 362 -179 8 -8 -208 -440 -254 -506 -15 -22 -55 -71 -89 -109 -66
-74 -65 -69 -49 -171 1 -5 0 -17 -2 -25 -2 -8 3 -15 11 -15 10 0 90 149 229
424 183 363 211 425 197 433 -9 5 -16 18 -16 29 0 19 1 19 31 4 l30 -16 -225
-444 c-125 -244 -226 -454 -226 -468 0 -23 -3 -25 -77 -29 l-76 -5 -37 38
c-21 22 -46 39 -58 39 -24 0 -28 10 -10 28 8 8 9 18 1 34 -5 13 -6 38 -2 56 6
28 3 34 -17 45 -23 12 -23 12 -4 37 l19 25 21 -28 c30 -38 40 -34 40 17 0 40
3 45 25 48 l25 3 -19 37 -20 36 22 16 c22 15 22 16 3 31 -25 19 -60 19 -76 0
-8 -9 -9 -15 -2 -15 6 0 14 5 17 10 8 13 26 13 45 0 13 -9 13 -11 0 -20 -22
-14 -79 -13 -75 3 1 6 6 27 10 45 4 17 14 32 21 32 7 0 11 6 8 14 -3 7 2 16
12 20 26 10 -2 35 -47 42 -38 6 -49 17 -29 29 18 11 11 25 -13 25 -30 0 -47
-18 -47 -48 0 -24 0 -24 -29 7 -27 29 -59 40 -74 24 -4 -3 0 -15 10 -25 15
-17 15 -19 -2 -32 -18 -13 -18 -14 4 -25 18 -10 27 -9 47 4 30 19 55 6 53 -29
0 -18 -3 -16 -14 9 -8 17 -15 28 -15 25 -4 -19 -6 -81 -3 -67 3 12 10 16 21
12 8 -3 19 0 23 7 13 20 17 5 10 -35 l-6 -38 -53 37 c-44 31 -56 35 -75 27
-18 -9 -28 -6 -51 12 -27 21 -27 22 -7 28 27 7 27 23 0 30 -17 5 -19 9 -10 26
15 28 14 61 -3 61 -7 0 -25 -11 -40 -25 -28 -26 -35 -72 -13 -94 10 -10 9 -11
-5 -6 -9 4 -19 21 -22 39 -8 40 -29 61 -77 74 -27 7 -40 6 -54 -4 -10 -8 -26
-12 -36 -9 -9 3 -22 -2 -29 -11 -12 -13 -11 -21 4 -48 19 -36 79 -62 112 -49
13 5 15 3 9 -7 -6 -10 -4 -12 8 -7 16 6 16 4 2 -17 -15 -23 -55 -42 -55 -26 0
4 10 15 23 24 14 11 16 15 5 12 -9 -3 -31 2 -49 11 -27 13 -35 14 -53 3 -12
-8 -45 -12 -79 -11 -58 2 -123 -12 -142 -31 -7 -7 -2 -8 14 -3 17 5 21 4 16
-5 -4 -6 -17 -9 -30 -6 -15 4 -28 -1 -40 -14 -17 -19 -17 -19 16 -8 19 6 57
21 85 34 52 24 124 32 124 14 0 -5 -12 -10 -27 -10 -59 -1 -164 -63 -189 -112
l-16 -31 31 22 c17 12 30 27 28 32 -1 6 9 18 23 26 25 15 25 15 4 -3 -14 -13
-19 -26 -15 -41 l6 -22 44 19 c24 11 58 36 75 55 l32 34 42 -20 c23 -12 60
-23 82 -26 25 -4 40 -11 40 -19 0 -21 19 -17 44 11 26 28 41 31 53 11 4 -7 38
-19 76 -26 37 -7 67 -17 67 -22 0 -5 -8 -7 -17 -4 -10 3 -36 8 -58 11 -63 10
-73 15 -78 33 -4 13 -5 12 -6 -4 -1 -23 -19 -34 -52 -34 -29 0 -94 -36 -117
-65 -17 -21 -28 -25 -74 -25 -44 0 -63 -6 -101 -31 -66 -43 -97 -84 -97 -125
l0 -34 110 80 c137 100 140 101 140 61 0 -34 2 -36 30 -21 17 9 18 6 18 -34 0
-48 18 -91 51 -120 21 -19 22 -19 51 9 16 16 31 27 34 24 2 -2 6 -23 10 -46
l6 -43 -440 0 c-287 0 -440 3 -440 10 0 6 7 10 15 10 9 0 27 11 40 25 l25 24
0 451 c0 437 -1 451 -20 470 -19 19 -33 20 -285 20 -146 0 -265 4 -265 8 0 4
4 12 9 18 5 5 12 34 16 65 5 43 4 58 -8 68 -12 9 -13 19 -6 44 12 44 11 94 -3
120 -19 37 -117 128 -153 143 -19 8 -61 14 -94 14 -49 0 -72 -6 -128 -36 -112
-58 -112 -58 -105 -180 3 -68 1 -104 -5 -104 -6 0 -14 -7 -17 -16 -6 -17 9
-98 25 -126 9 -17 -7 -18 -261 -18 -257 0 -271 -1 -290 -20 -19 -19 -20 -33
-20 -468 0 -497 -2 -485 65 -498 87 -16 16 -24 -215 -24 l-250 0 0 105 0 104
-32 6 c-18 3 -69 5 -113 3 -72 -3 -81 -5 -90 -25 -6 -14 -19 -23 -31 -23 -45
0 -82 -79 -64 -138 l9 -33 -215 3 -214 3 6 50 c3 28 8 56 10 64 6 20 -25 51
-51 51 -22 0 -22 0 -7 70 11 51 12 74 5 81 -19 19 -31 1 -48 -77 -15 -67 -19
-75 -38 -72 -14 2 -22 11 -23 24 -1 28 -13 46 -25 38 -6 -3 -10 0 -8 7 3 24
-1 39 -8 38 -5 -1 -10 -1 -13 1 -29 11 -51 7 -60 -10 -9 -16 -8 -20 5 -20 8 0
15 -5 15 -11 0 -5 -5 -7 -11 -3 -6 3 -3 -8 5 -25 9 -17 19 -31 22 -31 2 0 0 9
-6 20 -6 11 -8 25 -5 31 4 5 1 16 -5 25 -11 12 -9 14 9 11 21 -3 50 -33 50
-52 0 -5 -5 -2 -12 7 -8 10 -18 13 -26 9 -10 -6 -8 -16 8 -42 24 -39 28 -63 7
-33 -11 14 -18 16 -26 8 -8 -8 -9 -31 -1 -85 5 -40 8 -76 5 -78 -2 -3 -37 0
-77 7 -51 9 -77 18 -90 33 -14 17 -20 19 -32 9 -8 -6 -19 -9 -25 -5 -5 3 -10
1 -10 -4 0 -7 -7 -7 -20 1 -11 7 -20 20 -20 28 0 12 -2 13 -9 1 -5 -8 -18 -12
-30 -8 -12 3 -19 2 -16 -3 2 -4 -12 -10 -33 -12 -29 -4 -197 -67 -280 -105
-10 -4 -10 3 2 31 13 31 13 38 1 42 -7 3 -11 12 -9 19 6 14 -34 56 -78 83 -33
19 -33 18 -12 88 23 80 18 89 -32 64 -23 -12 -61 -37 -84 -57 -45 -39 -140
-88 -140 -73 0 4 16 70 35 147 19 76 35 139 35 140 0 1 25 10 56 20 30 9 66
28 79 40 25 26 167 308 222 443 30 72 68 247 57 259 -8 9 -77 -44 -100 -78
-24 -34 -26 -34 -20 -8 4 15 5 27 2 27 -2 0 -42 -44 -88 -97 -181 -209 -338
-445 -338 -510 0 -36 36 -71 82 -80 31 -6 34 -19 18 -73 -6 -19 -22 -84 -36
-144 -22 -95 -29 -112 -59 -141 -42 -39 -47 -90 -14 -136 11 -16 18 -29 15
-29 -18 0 -116 64 -116 76 0 16 -49 425 -57 477 -5 34 -4 37 18 37 65 0 129
75 129 152 0 63 -41 189 -87 267 -72 122 -225 280 -242 252 -5 -8 -13 -5 -25
8 -22 24 -103 57 -114 47 -4 -5 -6 -56 -6 -114 2 -126 43 -301 95 -404 35 -69
135 -180 179 -198 16 -7 31 -20 34 -29 3 -9 14 -97 26 -196 12 -99 25 -208 29
-243 8 -69 7 -70 -61 -36 -42 22 -58 18 -59 -13 0 -27 -1 -27 -9 -5 -5 12 -19
26 -31 30 -20 8 -19 10 15 30 33 19 66 70 66 101 0 16 -160 251 -171 251 -5 0
-12 -7 -15 -15 -4 -8 -10 -12 -15 -9 -5 3 -41 68 -79 145 -69 137 -90 163 -90
114 0 -24 -2 -23 -36 15 -20 22 -40 40 -45 40 -5 0 -9 -16 -9 -35 0 -26 27
-88 91 -213 164 -317 189 -360 227 -392 29 -24 33 -30 17 -30 -11 0 -29 7 -39
15 -11 8 -37 15 -58 15 -30 0 -38 -4 -38 -18 0 -10 6 -24 13 -31 10 -11 9 -13
-6 -8 -88 31 -141 41 -227 41 -114 -1 -281 -29 -293 -49 -4 -8 -16 -15 -26
-15 -15 0 -61 -38 -61 -51 0 -2 37 -1 83 3 323 26 631 -26 691 -117 19 -28 36
-107 111 -499 44 -231 51 -289 24 -209 -6 21 -32 80 -56 132 -23 51 -43 104
-43 117 0 27 -28 56 -90 92 -25 14 -61 38 -80 53 -19 15 -89 54 -155 88 -90
45 -123 57 -130 48 -5 -7 -27 -11 -47 -9 -21 2 -38 0 -38 -5 0 -4 64 -41 143
-82 196 -102 376 -210 394 -238 27 -41 131 -308 138 -354 l7 -45 -130 -11
c-72 -6 -140 -16 -151 -23 -23 -12 -26 -40 -11 -105 5 -22 12 -60 15 -85 4
-25 24 -146 45 -269 43 -255 41 -251 138 -272 70 -15 222 -20 279 -9 42 7 43
7 48 -24 11 -56 13 -70 19 -126 13 -110 15 -116 43 -129 53 -24 224 -36 330
-22 54 7 107 12 118 12 14 0 16 2 6 8 -7 5 -9 11 -4 14 14 9 77 5 90 -5 6 -5
14 -5 16 0 3 4 173 9 379 11 205 1 376 5 380 7 3 2 31 43 60 90 29 46 72 115
95 152 l42 67 1 773 0 772 420 0 419 0 16 -30 16 -30 -61 0 c-86 0 -100 -10
-100 -70 0 -45 3 -51 43 -84 l43 -35 28 -211 c15 -116 32 -225 38 -243 21 -61
62 -101 127 -123 l36 -12 7 -144 c4 -78 11 -199 15 -268 l9 -125 -28 -27 c-23
-21 -28 -34 -28 -75 0 -39 6 -55 31 -86 l30 -37 -23 -10 c-13 -5 -88 -35 -168
-65 -79 -31 -148 -61 -152 -68 -4 -7 -8 -28 -8 -47 0 -19 -7 -44 -15 -54 -15
-20 -20 -92 -9 -133 7 -27 54 -33 54 -8 0 8 7 15 15 15 8 0 15 -6 15 -14 0
-23 33 -29 47 -10 18 25 17 129 -2 148 -33 33 -47 28 340 122 127 31 255 58
286 61 l56 5 7 -168 c6 -141 5 -169 -7 -176 -18 -10 -29 -82 -19 -128 6 -26
14 -36 30 -38 15 -2 22 2 22 12 0 21 36 21 44 0 3 -9 15 -14 28 -12 41 6 51
127 13 168 -15 17 -16 32 -9 127 4 59 6 132 5 161 l-3 52 37 0 c21 0 94 -13
164 -30 286 -68 494 -120 500 -126 3 -3 -2 -11 -12 -18 -13 -10 -17 -29 -18
-79 -1 -36 2 -70 6 -76 10 -17 36 -13 51 7 13 16 15 16 25 -1 11 -19 44 -23
55 -6 14 24 6 140 -12 160 -10 11 -15 28 -12 44 3 16 -1 33 -11 45 -9 10 -79
42 -156 71 -77 28 -142 53 -144 55 -2 2 8 22 23 45 36 54 38 130 5 165 -12 13
-28 24 -36 24 -17 0 -17 48 1 113 8 29 20 85 26 125 11 64 14 72 34 72 57 0
62 82 7 102 -6 2 -6 31 1 80 9 63 15 78 33 88 28 15 58 55 73 97 6 18 23 127
38 243 l28 211 43 35 c40 33 43 39 43 84 0 60 -14 70 -94 70 l-55 0 17 30 17
30 483 0 483 0 -3 -772 -3 -773 100 -157 100 -158 430 0 430 0 20 -30 c32 -47
104 -73 205 -73 47 0 104 5 127 12 56 15 108 66 122 119 7 23 15 42 19 42 78
5 130 4 125 -3 -3 -4 18 3 45 17 48 24 81 58 96 100 6 19 66 510 66 547 0 20
-21 28 -95 39 l-50 7 38 17 c20 9 37 20 37 25 0 10 -72 77 -89 82 -19 7 51
445 94 592 25 85 111 169 247 243 81 43 66 43 -37 0 -44 -19 -93 -38 -110 -42
l-30 -6 35 30 c46 41 31 40 -28 0 -34 -23 -42 -25 -28 -10 11 12 14 22 8 22
-6 0 -21 -13 -33 -29 -12 -17 -35 -35 -50 -42 -16 -6 -43 -27 -59 -46 -17 -19
-34 -32 -39 -29 -18 11 -19 48 -3 64 9 10 25 29 34 44 18 27 42 36 118 42 25
2 58 9 73 15 16 6 33 8 39 5 11 -7 28 13 28 32 0 7 -14 5 -37 -7 -21 -10 -60
-21 -87 -25 l-49 -7 21 30 c33 47 152 154 182 165 23 8 63 53 95 106 10 18 -5
10 -122 -63 -48 -30 -95 -55 -106 -55 -41 0 -127 -64 -164 -122 -13 -22 -26
-38 -29 -36 -9 10 46 172 70 207 14 20 85 93 158 161 109 103 198 209 198 235
0 3 -17 -6 -37 -19 -51 -33 -144 -63 -223 -72 -85 -9 -97 -16 -121 -71 -30
-71 -32 -44 -3 48 32 102 52 143 117 237 47 68 217 242 237 242 5 0 21 23 35
50 14 28 23 50 20 50 -21 0 -193 -128 -270 -201 -45 -43 -69 -58 -94 -61 -34
-3 -35 -5 -52 -68 -9 -36 -22 -77 -29 -93 -11 -22 -11 -43 -1 -106 12 -79 3
-160 -20 -186 -5 -5 -9 -23 -9 -40 0 -37 -57 -375 -65 -383 -3 -3 -5 9 -5 26
0 17 -4 33 -9 36 -4 3 -11 43 -15 88 -4 46 -9 104 -13 129 -5 44 -4 46 31 67
50 29 53 45 22 101 -14 27 -26 63 -26 79 0 49 -19 79 -76 118 -50 34 -61 38
-151 45 -54 4 -115 11 -136 15 -20 3 -59 3 -85 -1 l-47 -7 50 -19 c28 -10 67
-19 87 -19 35 0 39 -3 83 -77 30 -49 81 -111 137 -166 85 -82 91 -91 95 -135
l4 -47 -20 25 c-11 14 -29 36 -40 50 -10 14 -56 45 -102 69 -46 24 -101 57
-122 73 -20 16 -65 38 -98 48 -33 10 -72 26 -85 35 -24 16 -25 15 -16 -2 16
-28 77 -84 197 -180 91 -73 115 -97 137 -143 14 -30 30 -66 33 -79 7 -23 6
-24 -31 -16 -22 4 -55 8 -74 9 -24 1 -36 6 -38 19 -2 10 3 17 13 17 13 0 16 8
13 38 l-3 37 -235 101 c-244 104 -260 115 -225 154 36 39 15 133 -36 161 -37
19 -135 7 -164 -21 -39 -36 -51 -87 -31 -134 22 -52 21 -56 -14 -56 l-30 0 0
86 0 86 187 366 c140 276 196 375 225 402 32 31 38 43 38 78 0 33 -6 45 -31
66 -17 14 -35 26 -40 26 -22 0 -49 -22 -64 -50 -11 -22 -23 -30 -43 -30 -15 0
-167 67 -337 149 -288 138 -312 151 -332 187 -61 107 -164 154 -233 107z m134
-21 c32 -19 81 -77 90 -107 4 -15 -3 -26 -27 -42 -27 -19 -47 -23 -105 -23
l-72 0 0 51 c0 42 -3 52 -19 56 -20 5 -35 39 -24 56 11 18 69 36 98 31 17 -3
43 -13 59 -22z m-169 -52 c3 -5 -3 -10 -14 -10 -12 0 -21 5 -21 10 0 6 6 10
14 10 8 0 18 -4 21 -10z m18 -39 c4 -1 7 -27 7 -58 l0 -58 -50 0 -50 0 0 56
c0 31 2 58 4 60 4 3 53 3 89 0z m614 -210 c393 -190 396 -191 391 -197 -2 -2
-56 22 -119 52 -63 31 -226 110 -364 176 -221 106 -282 138 -264 138 3 0 163
-76 356 -169z m-86 15 c250 -123 253 -125 194 -119 -48 5 -97 24 -245 95 -102
50 -204 99 -228 110 -35 17 -40 23 -30 35 7 8 21 12 33 9 12 -3 136 -62 276
-130z m-366 95 c-7 -12 -125 -11 -125 1 0 4 30 8 66 8 37 0 63 -4 59 -9z m473
-208 c36 -17 75 -26 122 -28 81 -4 155 -33 165 -65 4 -12 5 -23 2 -26 -2 -2
-48 17 -101 42 -54 25 -99 44 -102 42 -2 -3 43 -27 101 -54 57 -27 104 -52
105 -57 0 -4 -21 3 -47 16 -27 13 -193 93 -370 178 -178 85 -323 157 -323 161
0 4 89 -36 198 -89 108 -52 221 -106 250 -120z m-585 130 c37 -35 77 -118 77
-161 l0 -32 -167 2 -168 3 3 35 c5 47 38 114 75 150 57 55 123 56 180 3z
m-5311 -81 c92 -165 149 -306 188 -458 22 -85 25 -124 10 -124 -25 0 -140 124
-173 188 -54 103 -107 318 -107 438 0 91 11 85 82 -44z m17 53 c45 -49 51 -53
51 -30 0 8 4 15 9 15 18 0 140 -145 184 -219 49 -83 97 -211 97 -261 0 -48
-26 -98 -62 -120 -58 -35 -63 -30 -88 78 -35 154 -134 391 -225 540 -34 55
-18 54 34 -3z m902 -19 c-7 -8 -10 -20 -6 -26 16 -25 -25 -141 -122 -346 -57
-121 -117 -236 -132 -255 -26 -31 -96 -68 -107 -56 -3 3 23 56 59 119 35 62
117 207 182 321 64 115 115 210 113 213 -3 2 -90 -146 -194 -330 l-188 -333
-31 8 c-44 13 -81 44 -77 65 5 30 60 132 114 213 52 77 235 308 261 329 13 11
14 8 7 -23 -4 -19 -7 -35 -5 -35 1 0 22 28 46 63 42 60 80 99 88 91 2 -2 -2
-10 -8 -18z m2533 -63 c26 -52 47 -77 87 -107 51 -36 107 -66 66 -35 -15 12
-10 14 43 11 47 -3 67 1 94 17 18 12 36 21 40 21 3 0 6 -31 6 -70 l0 -70 -155
0 -155 0 0 78 c-1 49 -6 83 -14 95 -10 12 -15 14 -18 6 -11 -34 -48 41 -48 99
0 39 19 24 54 -45z m421 25 c-4 -24 -14 -54 -23 -68 -14 -22 -17 -23 -20 -7
-5 22 29 117 41 117 5 0 6 -19 2 -42z m2455 -30 c25 -27 26 -64 0 -105 -23
-39 -31 -41 -27 -11 1 16 -4 23 -18 24 -26 1 -105 43 -83 44 9 0 25 16 37 35
24 42 59 47 91 13z m-2872 -171 c4 -111 -13 -133 -181 -222 -72 -39 -145 -85
-163 -103 -18 -18 -46 -68 -64 -111 -21 -53 -44 -90 -71 -116 -47 -45 -69 -83
-84 -150 -7 -31 -17 -50 -26 -50 -12 0 -14 61 -17 394 -2 342 0 397 13 418
l16 23 287 -2 287 -3 3 -78z m944 66 c17 -15 18 -41 18 -415 0 -259 -4 -398
-10 -398 -5 0 -10 12 -10 28 0 39 -42 122 -78 157 -18 17 -46 66 -69 119 -20
49 -51 103 -68 120 -17 17 -89 62 -161 101 -108 57 -136 77 -160 112 -16 24
-32 43 -36 43 -5 0 -8 34 -8 75 l0 75 282 0 c248 0 284 -2 300 -17z m1663
-460 c-125 -246 -231 -452 -237 -458 -7 -7 -9 -7 -7 0 13 35 463 914 467 910
2 -2 -98 -206 -223 -452z m-57 -12 c-117 -231 -215 -417 -217 -415 -7 6 412
834 422 834 4 0 -88 -189 -205 -419z m-2183 304 c14 -13 25 -28 25 -32 0 -4
-44 -5 -97 -2 -54 3 -144 3 -201 0 -56 -3 -102 -2 -102 2 0 4 11 19 25 32 23
24 28 25 175 25 147 0 152 -1 175 -25z m167 -129 c73 -37 148 -82 167 -100 29
-27 91 -139 91 -164 0 -5 -30 2 -67 14 -145 48 -248 59 -538 59 -283 -1 -388
-12 -530 -56 -32 -10 -61 -17 -63 -15 -9 10 60 135 89 162 38 34 231 140 294
160 28 10 96 13 232 11 l192 -2 133 -69z m-4189 -76 l21 -45 5 45 6 44 62
-134 c48 -103 65 -153 73 -210 5 -41 12 -86 16 -100 6 -27 -66 104 -172 311
-65 128 -80 175 -48 148 9 -8 26 -34 37 -59z m7606 27 c-20 -18 -60 -52 -88
-76 -98 -81 -198 -219 -246 -336 -19 -48 -23 -53 -29 -33 -10 39 -7 84 9 114
8 16 15 36 15 44 0 8 5 32 11 53 8 31 14 37 37 37 19 1 46 19 91 61 82 76 221
182 230 174 3 -4 -10 -21 -30 -38z m-2335 -28 c-26 -27 -30 -28 -41 -13 -16
22 -8 34 22 34 13 0 27 5 30 11 4 6 10 8 13 5 3 -4 -8 -20 -24 -37z m71 19
c-6 22 -5 23 17 11 24 -12 38 -28 38 -42 0 -4 -7 -4 -17 1 -9 5 -34 7 -55 4
l-39 -5 13 27 12 27 19 -23 18 -23 -6 23z m145 4 c0 -10 -12 -29 -26 -43 l-27
-24 7 30 c12 49 46 76 46 37z m230 9 c0 -13 -29 -35 -37 -28 -7 8 15 37 28 37
5 0 9 -4 9 -9z m-86 -27 c7 -18 -13 -18 -36 0 -25 18 -22 24 6 19 14 -3 27
-11 30 -19z m155 -30 c13 -12 -8 -10 -29 2 l-25 15 25 -7 c14 -3 27 -8 29 -10z
m-425 -9 c13 -6 17 -5 13 2 -5 7 0 9 13 6 11 -3 20 -14 20 -24 0 -11 5 -19 10
-19 6 0 10 -5 10 -11 0 -5 -5 -7 -10 -4 -14 8 -38 -12 -62 -50 -10 -16 -18
-24 -18 -16 0 7 12 27 26 44 18 21 22 32 13 37 -8 6 -6 11 7 20 18 11 18 11
-1 4 -32 -12 -93 -17 -113 -9 -16 6 -16 8 3 21 20 15 52 14 89 -1z m261 5 c-3
-5 -15 -10 -26 -10 -11 0 -17 5 -14 10 3 6 15 10 26 10 11 0 17 -4 14 -10z
m129 -11 c15 -12 25 -23 22 -26 -7 -7 -66 26 -66 37 0 16 15 12 44 -11z m-249
1 c4 -6 -6 -10 -22 -10 -22 0 -25 2 -13 10 19 12 27 12 35 0z m209 -12 c9 -12
13 -24 11 -27 -6 -5 -45 29 -45 41 0 15 19 8 34 -14z m-184 -66 c0 -11 -7 -10
-32 5 -46 27 -49 48 -4 26 20 -9 36 -23 36 -31z m224 16 c-7 -26 -23 -48 -34
-48 -11 0 1 54 14 62 20 14 27 8 20 -14z m-464 2 c12 -7 11 -12 -5 -31 l-20
-22 28 5 c21 4 30 0 38 -14 10 -19 8 -19 -23 -13 -45 9 -101 37 -106 53 -7 22
60 40 88 22z m190 -57 c0 -39 -5 -41 -31 -10 -18 22 -25 58 -12 70 13 14 43
-27 43 -60z m-86 -24 c-9 -10 -21 -19 -26 -19 -16 0 -7 48 15 76 l22 29 3 -34
c2 -21 -3 -40 -14 -52z m210 75 c22 -8 20 -24 -2 -24 -9 0 -34 -11 -54 -25
-20 -14 -42 -25 -47 -25 -6 0 -11 11 -11 25 0 28 3 29 31 15 15 -9 21 -7 26 7
11 30 29 38 57 27z m-1547 -35 c143 -12 236 -29 332 -61 119 -39 201 -154 189
-263 -3 -23 -44 -127 -90 -231 -47 -104 -116 -263 -154 -354 l-68 -165 -2
-208 c-1 -199 -2 -210 -23 -230 -21 -22 -26 -22 -396 -22 -361 0 -375 1 -394
20 -18 18 -20 38 -24 235 l-4 215 -70 165 c-39 91 -107 246 -151 345 -45 99
-84 199 -88 221 -10 69 18 147 75 204 40 40 62 53 127 73 187 58 466 79 741
56z m1092 -25 c-27 -29 -98 -69 -107 -60 -10 10 42 58 83 77 49 22 56 17 24
-17z m512 16 c28 -16 23 -29 -15 -45 -34 -14 -126 -11 -126 4 0 12 74 51 98
51 13 0 32 -5 43 -10z m158 -59 c12 -16 21 -32 21 -36 0 -13 -46 8 -78 36
l-33 29 35 0 c27 0 39 -7 55 -29z m-124 -11 c-13 -26 -42 -50 -60 -50 -11 0
25 59 42 69 30 17 34 12 18 -19z m-5405 -97 c45 -69 70 -118 70 -136 0 -31
-48 -87 -74 -87 -34 0 -88 133 -100 248 -6 53 4 67 24 35 9 -14 10 -11 5 15
-4 17 -4 32 -1 32 4 0 38 -48 76 -107z m5343 79 c-6 -25 -26 -25 -31 0 -2 9 5
18 15 20 23 6 23 6 16 -20z m101 -17 c4 -21 0 -37 -13 -54 l-19 -24 -7 32 c-7
34 12 98 25 84 5 -4 11 -21 14 -38z m66 -47 c0 -30 0 -31 -20 -13 -18 16 -40
73 -40 100 0 6 14 -5 30 -23 20 -21 30 -43 30 -64z m-353 60 c-2 -7 -11 -12
-19 -12 -10 1 -14 -5 -11 -16 4 -16 -23 -48 -33 -38 -11 12 30 78 49 78 11 0
17 -5 14 -12z m30 -8 c-3 -11 5 -32 19 -51 29 -40 30 -44 4 -46 -11 -1 -20 3
-20 8 0 6 4 8 10 4 5 -3 -1 13 -15 36 -22 40 -24 69 -3 69 6 0 8 -9 5 -20z
m-87 3 c-1 -26 -51 -91 -85 -110 -50 -28 -55 -28 -55 1 0 33 37 75 84 97 45
20 56 23 56 12z m184 -7 c36 -15 66 -50 66 -77 0 -16 -4 -16 -52 -4 -55 15
-82 36 -93 73 -5 19 -3 22 20 22 14 0 41 -6 59 -14z m486 -86 c-22 -44 -42
-80 -44 -80 -13 0 -36 13 -36 20 0 9 109 140 116 140 2 0 -14 -36 -36 -80z
m-589 -15 c11 -55 10 -63 -8 -93 l-21 -33 -22 28 c-18 23 -21 38 -18 78 5 55
36 116 49 93 4 -7 13 -40 20 -73z m208 68 c-1 -10 -4 -29 -9 -43 -7 -23 -8
-24 -15 -5 -15 42 -15 49 -3 57 20 12 28 10 27 -9z m-3842 -17 c-3 -8 -11 -43
-18 -77 -6 -35 -16 -68 -22 -74 -6 -7 -8 -2 -4 15 3 14 11 53 18 88 6 34 16
62 21 62 6 0 8 -6 5 -14z m3548 -79 c1 -24 10 -55 19 -69 17 -26 16 -27 -12
-60 -30 -32 -31 -32 -51 -14 -27 24 -45 80 -37 118 7 34 56 88 70 76 5 -4 10
-27 11 -51z m309 48 c3 -8 1 -15 -4 -15 -6 0 -10 7 -10 15 0 8 2 15 4 15 2 0
6 -7 10 -15z m-4784 -10 c0 -5 -66 -248 -96 -352 -11 -41 -19 -53 -35 -53 -23
0 -99 -37 -99 -48 0 -5 23 -6 50 -2 28 4 52 5 54 2 5 -4 -51 -162 -60 -171 -7
-7 -95 42 -101 55 -2 6 5 27 16 45 28 45 27 108 0 143 -13 17 -19 35 -15 49
10 40 93 171 142 226 63 70 144 130 144 106z m4275 -3 c-22 -19 -174 -132
-179 -132 -2 0 -1 12 3 27 4 16 30 47 60 70 40 33 60 43 88 43 21 0 33 -4 28
-8z m1578 1 c-7 -2 -21 -2 -30 0 -10 3 -4 5 12 5 17 0 24 -2 18 -5z m-1193
-25 c0 -16 -3 -19 -11 -11 -6 6 -8 16 -5 22 11 17 16 13 16 -11z m84 10 c4 3
6 0 6 -6 0 -7 -8 -12 -17 -12 -10 0 -28 -3 -40 -6 -18 -5 -23 -2 -23 14 0 18
4 19 34 12 19 -4 37 -5 40 -2z m-134 -8 c0 -5 -7 -10 -15 -10 -8 0 -15 5 -15
10 0 6 7 10 15 10 8 0 15 -4 15 -10z m215 -9 c7 -23 -4 -53 -16 -45 -6 3 -20
-1 -33 -10 -21 -13 -26 -13 -45 0 -30 21 -57 4 -65 -43 -9 -59 -7 -72 15 -94
21 -21 21 -46 0 -77 -12 -20 -117 -6 -126 17 -17 44 -32 142 -21 138 10 -4 33
34 46 77 5 17 14 19 70 18 36 -1 90 2 120 7 39 6 46 9 23 10 -41 1 -44 21 -4
21 20 0 32 -6 36 -19z m1236 9 c20 -6 57 -29 83 -51 39 -35 46 -46 46 -78 0
-21 11 -59 25 -85 14 -26 25 -49 25 -51 0 -6 -57 -35 -68 -35 -5 0 -24 30 -41
68 -63 132 -142 232 -182 232 -7 0 3 -10 22 -23 37 -24 119 -139 143 -200 l15
-38 -62 57 c-72 67 -155 193 -135 206 18 11 86 10 129 -2z m-5247 -16 c3 -8 2
-12 -4 -9 -15 9 -12 -8 5 -31 8 -10 14 -23 15 -29 0 -5 -9 4 -20 21 -11 17
-18 39 -14 48 8 20 10 20 18 0z m-25 -30 c23 -39 25 -44 13 -44 -7 0 -42 63
-42 75 0 12 10 2 29 -31z m886 16 c-8 -13 -115 -13 -135 0 -10 7 9 10 63 10
50 0 76 -4 72 -10z m3756 -19 c40 -40 40 -89 0 -133 -25 -28 -36 -33 -74 -33
-105 0 -142 117 -58 182 9 7 35 13 59 13 35 0 49 -6 73 -29z m48 -30 c0 -14
-1 -14 -6 -1 -3 8 -15 26 -27 40 l-21 25 28 -24 c15 -14 27 -32 26 -40z
m-3781 -96 l-3 -130 -75 -3 c-127 -5 -120 -13 -120 136 l0 127 100 0 101 0 -3
-130z m4947 115 c-9 -14 8 -12 25 3 42 36 -45 -57 -105 -112 -38 -36 -98 -93
-132 -128 -35 -34 -63 -60 -63 -57 0 28 38 79 89 118 33 26 74 66 90 90 17 24
44 49 61 56 17 7 29 15 26 17 -10 10 -69 -31 -94 -66 -16 -21 -57 -62 -91 -91
-39 -33 -70 -68 -80 -91 -9 -22 -18 -39 -21 -39 -12 0 -40 59 -40 83 0 14 12
40 26 57 15 17 36 50 48 73 20 41 23 42 82 50 34 4 88 16 120 26 33 10 60 19
62 20 2 1 0 -3 -3 -9z m-1550 -9 c3 -5 1 -12 -4 -15 -5 -3 -11 1 -15 9 -6 16
9 21 19 6z m-4145 -11 c0 -5 -9 -10 -20 -10 -11 0 -20 5 -20 10 0 6 9 10 20
10 11 0 20 -4 20 -10z m3770 6 c0 -2 -7 -6 -15 -10 -8 -3 -15 -1 -15 4 0 6 7
10 15 10 8 0 15 -2 15 -4z m61 -27 c-9 -22 -10 -22 -10 -3 -1 11 2 24 6 27 12
12 14 0 4 -24z m-3301 10 c0 -5 -4 -8 -10 -4 -19 12 -50 -34 -50 -75 0 -41 31
-87 50 -75 6 4 10 1 10 -4 0 -19 -36 -12 -56 10 -42 46 -15 159 38 159 10 0
18 -5 18 -11z m3347 -4 c9 -24 -1 -27 -15 -5 -8 13 -8 20 -2 20 6 0 13 -7 17
-15z m-4052 -85 c6 -44 8 -80 4 -80 -9 0 -16 32 -25 115 -10 87 7 59 21 -35z
m1411 45 c9 -40 9 -45 -7 -45 -22 0 -39 29 -39 64 0 18 5 26 18 26 13 0 20
-13 28 -45z m1524 19 c0 -28 -16 -64 -29 -64 -4 0 -3 20 3 45 12 49 26 60 26
19z m1053 6 c3 -11 11 -19 17 -18 22 5 36 -29 22 -52 -7 -12 -8 -20 -2 -20 6
0 13 7 16 15 9 23 52 18 79 -10 27 -27 30 -37 15 -65 -9 -17 -12 -17 -40 12
-25 25 -33 28 -45 18 -8 -7 -15 -18 -14 -24 0 -7 2 -6 6 2 8 19 41 14 53 -8
17 -32 9 -84 -14 -88 -14 -3 -17 0 -13 12 4 9 3 24 0 34 -6 14 -8 13 -13 -8
-13 -53 -110 -6 -110 54 0 14 9 27 23 34 21 10 21 11 2 11 -35 1 -65 30 -65
61 0 49 72 83 83 40z m-4975 -22 c-14 -18 -37 -57 -53 -85 -15 -29 -32 -53
-36 -53 -5 0 -11 16 -15 36 -6 31 -2 40 27 70 32 33 72 60 93 63 4 1 -3 -14
-16 -31z m1052 -12 c0 -6 -7 -2 -15 8 -8 11 -15 25 -15 30 0 6 7 2 15 -8 8
-11 15 -25 15 -30z m41 16 c-6 -11 -8 -29 -5 -39 5 -15 4 -16 -6 -3 -10 13
-11 13 -6 -2 3 -10 9 -25 13 -35 4 -11 3 -14 -5 -9 -17 10 -15 0 4 -30 9 -13
14 -27 11 -30 -3 -3 -15 12 -26 35 -22 43 -28 66 -10 41 9 -13 10 -12 5 3 -3
9 -9 24 -13 34 -4 11 -3 14 5 9 7 -4 12 -3 12 3 0 5 -4 13 -10 16 -5 3 -10 12
-10 18 0 7 7 4 14 -6 13 -16 14 -16 19 5 4 12 9 19 12 16 4 -3 2 -15 -4 -26z
m83 -14 c-4 -24 -9 -59 -13 -78 l-7 -34 -27 46 c-20 35 -25 54 -21 77 6 27 11
31 40 31 l34 0 -6 -42z m4216 -3 c0 -41 -2 -45 -25 -45 l-25 0 22 45 c12 25
23 45 25 45 2 0 3 -20 3 -45z m-4362 2 c17 -30 18 -41 9 -103 -9 -62 -11 -66
-19 -39 -9 33 -20 175 -14 175 2 0 13 -15 24 -33z m662 -27 c0 -46 -3 -60 -15
-60 -17 0 -35 30 -35 60 0 30 18 60 35 60 12 0 15 -14 15 -60z m-1451 25 c54
-33 56 -41 24 -70 l-28 -26 33 7 c32 6 34 5 27 -17 -13 -42 -35 -69 -63 -75
-15 -3 -43 -14 -63 -25 -20 -10 -39 -19 -42 -19 -4 0 0 18 8 40 8 22 12 40 8
40 -3 0 0 7 7 15 7 8 10 15 7 15 -4 0 0 18 8 40 8 22 12 40 9 40 -3 0 -2 6 3
13 8 12 9 17 12 37 2 14 7 13 50 -15z m5866 -90 c33 -23 88 -57 123 -75 47
-25 72 -47 102 -89 44 -62 47 -78 25 -121 -11 -20 -23 -30 -39 -30 -19 0 -26
8 -36 45 -23 81 -60 125 -193 228 -70 54 -129 103 -132 107 -13 20 95 -26 150
-65z m-6610 45 c17 -7 15 -9 -12 -9 -18 -1 -33 4 -33 9 0 12 17 12 45 0z
m1627 -32 c20 -39 31 -88 20 -88 -3 0 -11 8 -18 18 -13 16 -14 16 -7 -3 3 -12
2 -17 -3 -12 -5 5 -9 18 -10 30 -1 12 -5 31 -9 41 -6 14 -5 17 3 12 7 -4 12
-3 12 3 0 5 -4 13 -10 16 -10 6 -14 25 -5 25 2 0 15 -19 27 -42z m-477 25
c-17 -5 -15 -7 10 -17 l30 -13 -25 -13 c-14 -7 -29 -19 -33 -26 -9 -16 -67
-19 -67 -4 0 5 15 14 33 19 30 9 30 10 10 16 -13 4 -23 11 -23 15 0 4 -12 5
-27 3 -25 -4 -26 -3 -10 7 11 7 32 10 48 6 15 -3 31 -1 34 4 3 6 14 9 23 9 13
-1 13 -2 -3 -6z m-1238 -37 c45 -15 85 -32 89 -38 5 -8 1 -9 -12 -3 -53 22
-406 15 -594 -11 -33 -4 -34 -4 -16 11 12 9 41 15 70 15 46 1 49 2 32 15 -17
13 -16 14 18 20 166 32 294 29 413 -9z m5983 4 c0 -27 -3 -30 -30 -30 -27 0
-30 3 -30 30 0 27 3 30 30 30 27 0 30 -3 30 -30z m95 -65 c-10 -36 -22 -65
-26 -65 -12 0 -11 8 7 71 22 79 25 86 31 71 3 -7 -3 -42 -12 -77z m169 33 c3
-29 9 -63 12 -75 4 -13 2 -23 -3 -23 -10 0 -33 94 -33 132 0 40 18 15 24 -34z
m-6025 11 c6 -18 11 -41 11 -52 0 -31 12 -13 24 38 l12 45 100 -50 c190 -93
205 -146 87 -298 l-18 -22 -185 185 -185 185 72 0 c71 0 71 0 82 -31z m1284 1
c66 -21 112 -55 86 -64 -8 -3 -27 -7 -44 -9 -25 -3 -24 -4 10 -6 l40 -2 -24
-19 c-20 -18 -37 -20 -138 -18 -100 2 -116 5 -125 21 -5 10 -7 22 -3 25 4 4
51 7 106 7 74 0 91 2 67 9 -18 4 -66 6 -105 4 -61 -4 -75 -2 -89 13 -9 10 -26
20 -38 22 -17 3 -13 7 24 26 53 26 129 23 233 -9z m-358 10 c11 -5 16 -9 10
-9 -5 -1 -23 -12 -40 -26 l-30 -25 50 2 c48 3 50 2 47 -21 -1 -14 -3 -26 -5
-27 -15 -14 -215 -6 -287 12 -23 5 -20 9 35 36 117 60 178 76 220 58z m793
-12 c3 -15 -5 -18 -52 -18 -50 0 -56 2 -56 21 0 18 5 20 52 17 41 -2 54 -7 56
-20z m3988 -24 c36 -9 74 3 74 25 0 14 6 17 25 13 26 -5 29 -10 19 -36 -5 -13
-26 -16 -123 -16 -120 0 -133 3 -144 32 -5 15 2 17 56 20 53 3 62 0 65 -14 2
-10 14 -21 28 -24z m178 -15 c-9 -30 -21 -58 -26 -64 -8 -7 -9 -5 -5 7 3 9 11
36 17 60 13 47 20 62 26 55 2 -2 -3 -28 -12 -58z m-4452 16 c-2 -14 -9 -25
-14 -25 -6 0 -7 7 -4 16 3 9 6 22 6 30 0 9 4 13 9 10 4 -3 6 -17 3 -31z m168
20 c0 -8 -5 -24 -12 -35 -7 -10 -9 -22 -6 -25 4 -4 42 -9 85 -12 69 -4 82 -2
106 17 38 30 35 50 -8 50 -19 0 -35 5 -35 10 0 6 47 10 121 10 106 0 124 -3
146 -20 14 -11 34 -20 44 -20 11 0 19 -7 19 -15 0 -23 43 -35 128 -35 82 0
129 18 118 46 -15 39 -3 41 254 43 l250 2 0 -39 c0 -28 -5 -42 -16 -46 -13 -5
-16 -16 -12 -56 l5 -50 -859 0 c-623 0 -857 3 -852 11 16 27 76 40 153 34 78
-7 151 10 151 35 0 6 12 8 28 5 44 -7 126 18 130 41 8 57 13 64 37 64 16 0 25
-6 25 -15z m3517 -6 c7 -26 41 -39 105 -39 47 0 50 -1 45 -22 -7 -26 8 -48 33
-48 9 0 31 -7 48 -15 34 -17 77 -12 90 12 7 12 10 12 21 -1 19 -23 77 -20 98
4 15 18 26 19 132 13 64 -3 121 -10 128 -15 8 -6 24 -4 45 5 18 9 50 18 71 22
21 3 44 8 52 11 7 3 16 -3 20 -15 7 -24 37 -28 54 -8 10 13 10 25 -5 81 -6 26
-5 28 12 22 102 -38 393 -163 394 -168 0 -5 -496 -8 -1101 -8 l-1102 0 7 41
c5 31 3 46 -9 59 -9 10 -19 34 -22 54 l-6 36 443 0 c439 0 442 0 447 -21z
m868 1 c3 -5 -14 -13 -37 -17 -43 -9 -54 -4 -45 20 5 14 73 11 82 -3z m-445
-8 c0 -21 -47 -69 -57 -58 -10 10 28 76 44 76 7 0 13 -8 13 -18z m-5686 -23
c25 -7 58 -30 90 -62 28 -28 40 -41 26 -30 -57 47 -183 85 -325 98 -38 4 -72
9 -75 12 -9 10 243 -6 284 -18z m1930 12 c3 -5 -2 -15 -11 -22 -9 -8 -14 -9
-11 -4 4 6 -25 9 -80 7 -67 -2 -83 0 -69 8 10 7 40 9 68 7 27 -3 49 -1 49 4 0
12 47 12 54 0z m-320 -17 c9 -22 8 -24 -9 -24 -8 0 -15 9 -15 20 0 24 15 27
24 4z m2739 -40 c-16 -13 -16 -14 8 -8 15 3 29 2 32 -3 11 -18 -30 -176 -49
-190 -19 -14 -104 -18 -104 -6 0 4 26 65 57 135 47 106 59 124 65 107 6 -16 3
-25 -9 -35z m1129 -4 c9 0 9 -3 1 -11 -23 -23 -47 -6 -50 35 l-2 40 19 -32
c11 -18 25 -32 32 -32z m-4332 24 c0 -14 -4 -23 -10 -19 -5 3 -10 15 -10 26 0
10 5 19 10 19 6 0 10 -12 10 -26z m58 -1 c3 -17 -2 -23 -16 -23 -18 0 -32 18
-32 42 0 21 45 3 48 -19z m4940 15 c-5 -15 -40 -26 -85 -27 -43 -1 -34 26 10
32 65 8 79 7 75 -5z m-3148 -30 c0 -5 -4 -8 -10 -8 -5 0 -10 10 -10 23 0 18 2
19 10 7 5 -8 10 -18 10 -22z m2897 22 c63 0 72 -2 66 -16 -5 -15 -22 -16 -140
-12 -74 3 -136 8 -139 11 -3 3 -3 11 1 18 6 8 27 10 74 5 36 -3 98 -6 138 -6z
m1151 -190 c-17 -58 -45 -168 -63 -245 -20 -81 -34 -125 -34 -105 0 19 4 53
10 75 6 22 12 60 14 85 1 25 14 113 29 196 14 84 26 156 26 160 0 5 11 -7 24
-27 l24 -35 -30 -104z m-6145 139 c53 -6 97 -14 97 -17 0 -3 -49 -2 -108 1
-89 5 -124 3 -191 -13 -104 -25 -161 -26 -74 -1 34 10 68 23 75 28 18 15 48
22 78 17 14 -2 69 -8 123 -15z m4786 12 c11 -7 9 -11 -8 -20 -33 -18 -76 0
-54 22 9 10 45 8 62 -2z m1721 -21 c-12 -16 -22 -30 -23 -30 -1 0 -17 -4 -35
-9 -17 -5 -32 -8 -32 -6 0 5 102 75 108 75 2 0 -6 -13 -18 -30z m-6245 6 c0 0
8 -16 17 -33 l17 -33 -181 0 c-128 0 -179 3 -171 11 5 5 41 14 79 19 103 14
184 32 190 42 4 7 49 1 49 -6z m53 -19 c2 -15 -1 -27 -7 -27 -14 0 -33 38 -26
51 11 17 30 4 33 -24z m1830 -59 c23 -51 42 -96 42 -100 0 -14 -78 -8 -93 7
-14 14 -47 133 -47 169 0 11 9 16 28 16 26 0 32 -8 70 -92z m2522 77 c0 -16
-64 -22 -74 -6 -9 14 5 21 41 21 23 0 33 -5 33 -15z m-4752 -46 c-33 -17 -38
-24 -38 -54 0 -24 5 -35 15 -35 10 0 15 -10 15 -30 0 -21 -5 -30 -16 -30 -23
0 -182 -76 -221 -106 l-34 -26 7 29 c3 15 22 71 41 123 19 52 36 100 38 106 5
16 116 41 180 42 l50 1 -37 -20z m-547 -359 l59 -195 0 -182 c0 -191 -12 -242
-24 -100 -4 45 -12 102 -16 127 -5 25 -23 117 -39 205 -17 88 -44 231 -61 317
-47 248 -47 246 81 -172z m2673 314 c3 -9 6 -20 6 -25 0 -5 -429 -9 -1075 -9
l-1075 0 0 25 0 25 1069 0 c965 0 1069 -2 1075 -16z m3716 -9 l0 -25 -1134 0
-1133 0 5 25 4 25 1129 0 1129 0 0 -25z m549 -62 c-46 -49 -93 -92 -106 -96
-12 -5 -25 -17 -28 -28 -4 -11 -11 -17 -16 -14 -12 8 -12 52 1 60 6 4 22 25
36 46 25 41 98 99 137 111 62 18 58 6 -24 -79z m-6883 -208 c4 -88 4 -157 0
-154 -5 5 -94 291 -132 424 -4 12 21 -7 60 -45 l66 -65 6 -160z m1564 -685 l0
-920 -45 -1 c-25 0 -65 -1 -90 -1 -670 0 -705 1 -705 22 0 19 8 20 393 22
l392 3 3 868 2 867 -427 1 c-634 2 -577 -1 -581 32 l-3 27 530 0 531 0 0 -920z
m210 155 l0 -764 -47 -76 c-27 -41 -53 -83 -58 -93 -35 -57 -77 -122 -81 -122
-2 0 -4 410 -4 910 l0 910 95 0 95 0 0 -765z m3460 -150 c0 -503 -2 -915 -4
-915 -4 0 -66 99 -66 106 0 2 -18 30 -40 61 -22 32 -40 62 -40 66 0 5 -9 20
-20 34 -20 25 -20 41 -20 794 l0 769 95 0 95 0 0 -915z m870 896 c5 -11 10
-24 10 -30 0 -8 -126 -11 -410 -11 l-410 0 0 -864 c0 -778 2 -864 16 -870 9
-3 183 -6 389 -6 364 0 373 0 378 -20 4 -15 0 -20 -16 -21 -26 -1 -701 -1
-769 0 l-48 1 0 913 c0 503 3 917 7 920 3 4 194 7 424 7 403 0 419 -1 429 -19z
m200 -24 c0 -24 -3 -46 -6 -49 -10 -10 -44 4 -44 18 0 9 -12 14 -33 14 -28 0
-107 41 -107 55 0 3 43 5 95 5 l95 0 0 -43z m280 -2 c0 -17 -4 -23 -15 -19
-11 5 -12 11 -4 25 13 26 19 24 19 -6z m-173 -35 c13 0 23 -4 23 -9 0 -4 37
-48 82 -96 l83 -88 7 -76 c10 -113 9 -259 -1 -266 -11 -6 -12 2 -36 175 -8 63
-12 131 -9 150 5 33 1 41 -45 90 -44 47 -61 57 -124 76 -68 20 -72 23 -75 52
l-3 30 38 -19 c20 -10 48 -19 60 -19z m-6253 -144 c-7 -67 -18 -136 -26 -155
-14 -34 -14 -31 -36 115 -25 170 -26 186 -11 201 8 8 21 4 48 -15 l36 -26 -11
-120z m6181 94 c101 -30 114 -36 157 -81 48 -48 58 -78 38 -109 -8 -12 -13
-11 -37 8 -15 13 -41 30 -57 40 -50 30 -273 192 -286 207 -7 8 7 4 31 -9 24
-14 93 -39 154 -56z m58 73 c-7 -2 -21 -2 -30 0 -10 3 -4 5 12 5 17 0 24 -2
18 -5z m-5923 -28 c-7 -8 -10 -15 -7 -15 2 0 21 7 40 15 21 9 67 15 108 15
l72 0 -114 -73 c-63 -40 -155 -101 -205 -134 -128 -88 -135 -90 -161 -44 -21
36 -21 38 -4 77 23 50 122 116 241 160 45 16 44 16 30 -1z m407 -15 c33 -30
35 -30 153 -30 118 0 120 0 153 30 l35 30 141 0 141 0 0 -130 0 -130 -470 0
-470 0 0 79 0 79 77 51 c73 48 81 51 141 51 57 0 68 -3 99 -30z m298 10 c-16
-18 -31 -20 -145 -20 -114 0 -129 2 -145 20 -18 20 -17 20 145 20 162 0 163 0
145 -20z m1595 -121 l0 -140 -42 3 -43 3 -8 50 -8 50 47 41 c46 40 47 42 42
88 -3 25 -2 46 3 46 5 0 9 -63 9 -141z m1142 96 c-4 -43 -3 -46 42 -88 l47
-43 -8 -49 -8 -50 -43 -3 -42 -3 0 140 c0 78 4 141 9 141 5 0 6 -20 3 -45z
m1705 15 c33 -30 35 -30 153 -30 118 0 120 0 153 30 32 28 40 30 117 30 82 0
82 0 141 -46 l59 -45 0 -85 0 -84 -470 0 -470 0 0 130 0 130 141 0 141 0 35
-30z m298 10 c-16 -18 -31 -20 -145 -20 -114 0 -129 2 -145 20 -18 20 -17 20
145 20 162 0 163 0 145 -20z m658 -1 c15 -11 27 -30 27 -41 0 -11 9 -35 20
-53 18 -30 19 -34 4 -46 -14 -11 -18 -10 -30 6 -39 57 -110 145 -117 145 -4 0
17 -31 48 -69 30 -39 55 -72 55 -75 0 -4 -89 89 -123 130 -17 21 -17 21 36 23
41 1 60 -3 80 -20z m-3843 -33 c0 -43 -28 -65 -85 -67 l-40 -2 35 -6 35 -6
-33 -20 c-28 -17 -30 -20 -14 -26 20 -7 32 -52 32 -116 0 -26 -4 -33 -19 -33
-20 0 -24 12 -37 118 -6 48 -11 56 -50 84 -36 26 -44 37 -44 63 0 17 3 35 7
38 3 4 53 7 110 7 l103 0 0 -34z m1428 -7 c3 -33 -1 -39 -45 -71 l-48 -34 -35
18 -35 17 45 2 45 1 -59 9 c-71 10 -86 22 -86 66 l0 34 108 -3 107 -3 3 -36z
m-4645 -31 c113 -60 206 -128 227 -169 7 -12 -11 -5 -57 23 -38 23 -131 75
-208 115 -127 66 -161 90 -89 62 28 -10 28 -10 9 10 -10 12 -15 21 -10 21 4 0
62 -28 128 -62z m524 -143 c-4 -93 -7 -228 -7 -299 0 -228 -8 -130 -16 189 -6
297 -6 309 11 295 16 -14 17 -29 12 -185z m173 181 c0 -1 -7 -27 -16 -57 -20
-67 -35 -86 -28 -33 13 98 15 103 29 97 8 -3 15 -6 15 -7z m2690 -440 c0 -251
-2 -247 116 -257 102 -10 536 -10 638 0 118 10 116 6 116 257 l0 204 50 123
49 122 2 -47 c2 -58 2 -74 0 -138 -1 -41 -4 -50 -19 -50 -35 0 -42 -21 -42
-127 0 -92 2 -104 20 -115 18 -12 20 -24 20 -121 0 -129 -12 -160 -73 -188
-39 -17 -70 -19 -442 -19 -372 0 -403 2 -442 19 -61 28 -73 59 -73 188 0 97 2
109 20 121 18 11 20 23 20 115 0 106 -7 127 -42 127 -15 0 -18 9 -19 50 -2 64
-2 80 0 138 l2 47 49 -122 50 -123 0 -204z m3802 363 c-16 -26 -15 -59 3 -79
16 -17 18 -5 -56 -292 -5 -21 -13 -38 -17 -38 -13 0 7 224 28 320 12 52 24
108 27 125 6 30 6 30 16 7 8 -17 7 -29 -1 -43z m-402 -22 c0 -20 -1 -20 -25 3
-14 13 -25 30 -25 37 0 11 5 10 25 -3 14 -9 25 -26 25 -37z m-5750 -387 l0
-430 -25 0 -25 0 0 414 0 414 23 15 c12 9 23 16 25 16 1 1 2 -192 2 -429z
m6359 380 c-50 -48 -67 -61 -54 -40 3 5 8 19 10 31 6 31 23 47 53 52 15 2 31
5 35 6 4 0 -16 -21 -44 -49z m-6833 -307 c-15 -46 -30 -83 -32 -83 -6 0 1 160
13 340 l6 95 20 -135 20 -135 -27 -82z m6274 297 c19 -15 21 -20 8 -20 -27 0
-48 11 -48 26 0 19 10 17 40 -6z m438 -9 c-18 -16 -35 -27 -38 -24 -6 6 47 53
61 53 5 0 -5 -13 -23 -29z m52 -2 c-5 -16 -6 -36 -4 -44 3 -8 -6 -63 -20 -122
-26 -112 -70 -357 -82 -463 -9 -82 -26 -89 -19 -8 3 35 10 142 16 238 5 96 14
216 19 265 10 88 11 91 51 128 23 20 43 37 45 37 1 0 -1 -14 -6 -31z m-6357
-36 c-1 -32 -2 -214 -2 -405 l-1 -348 -45 0 -45 0 6 43 c3 23 10 60 15 82 6
29 5 44 -5 53 -8 8 -62 18 -134 25 l-122 11 0 41 c0 53 56 372 68 392 4 6 30
22 57 36 28 14 84 49 125 76 41 28 77 51 80 51 3 0 4 -26 3 -57z m5908 7 c24
0 42 -7 55 -21 10 -12 36 -30 57 -40 28 -15 37 -26 37 -44 0 -32 -29 -34 -56
-4 -10 12 -57 40 -103 63 -46 22 -90 51 -99 64 l-15 22 44 -20 c24 -11 60 -20
80 -20z m-2326 -17 c-12 -93 -16 -103 -36 -103 -21 0 -24 22 -13 104 6 40 10
46 31 46 23 0 24 -2 18 -47z m2214 13 c22 -34 30 -136 12 -136 -35 0 -41 13
-41 91 0 43 2 79 4 79 2 0 14 -15 25 -34z m-6475 -65 c36 -40 0 -21 -39 21
-35 36 -36 38 -10 21 17 -12 39 -30 49 -42z m6931 -76 c-8 -66 -19 -208 -25
-315 -6 -107 -12 -195 -13 -196 -1 -1 -17 -5 -34 -9 l-33 -7 0 122 c0 111 4
139 46 308 41 168 60 230 69 220 1 -1 -3 -57 -10 -123z m-379 100 c10 -8 14
-15 8 -15 -5 0 -19 7 -30 15 -10 8 -14 15 -8 15 5 0 19 -7 30 -15z m-6165 -17
c9 -17 6 -52 -17 -177 -26 -142 -29 -152 -35 -111 -6 41 3 196 17 278 6 37 18
41 35 10z m6199 -13 c21 -3 49 -20 72 -42 28 -27 42 -34 62 -31 31 6 33 1 42
-109 l7 -83 -30 0 c-25 0 -34 7 -56 48 -24 45 -25 50 -10 65 16 15 14 19 -23
51 -34 30 -46 35 -91 36 l-53 0 0 40 c0 37 2 40 23 36 12 -3 38 -7 57 -11z
m-5520 -20 c23 -24 27 -25 160 -25 133 0 137 1 160 25 23 24 27 25 167 25
l143 0 0 -125 0 -125 -322 -1 c-178 0 -388 -1 -468 -2 l-145 -1 -3 127 -3 127
144 0 c140 0 144 -1 167 -25z m301 5 c-20 -17 -39 -20 -141 -20 -102 0 -121 3
-141 20 l-24 19 165 0 165 0 -24 -19z m4439 -5 c23 -24 27 -25 160 -25 133 0
137 1 160 25 23 24 27 25 166 25 l142 0 1 -122 c0 -99 -2 -119 -12 -104 -31
48 -51 67 -101 95 -29 17 -66 31 -81 31 -34 0 -121 -57 -175 -116 l-41 -45
-45 25 c-42 23 -44 24 -44 5 0 -17 -8 -19 -67 -20 -38 0 -135 -1 -218 -2
l-150 -2 -3 128 -3 127 144 0 c140 0 144 -1 167 -25z m301 5 c-20 -17 -39 -20
-141 -20 -102 0 -121 3 -141 20 l-24 19 165 0 165 0 -24 -19z m-3076 -105 l0
-100 -96 -3 -97 -3 -7 63 c-3 35 -9 71 -11 80 -3 11 2 17 18 20 13 2 28 13 33
26 9 21 15 23 85 20 l75 -3 0 -100z m1160 83 c6 -13 20 -24 33 -26 16 -3 21
-9 18 -20 -2 -9 -8 -45 -11 -80 l-7 -63 -97 3 -96 3 -3 89 c-2 49 -1 95 2 103
4 9 27 13 78 13 66 0 74 -2 83 -22z m2286 -48 c16 -9 19 -22 19 -96 0 -74 -2
-85 -16 -80 -9 3 -20 6 -25 6 -5 0 -9 41 -9 90 0 50 3 90 6 90 3 0 14 -5 25
-10z m158 -21 c25 -24 30 -33 22 -42 -9 -9 -14 -8 -21 4 -5 9 -30 24 -55 33
-53 21 -58 36 -12 36 21 0 43 -10 66 -31z m-6312 -16 c-3 -10 -5 -4 -5 12 0
17 2 24 5 18 2 -7 2 -21 0 -30z m6262 -23 c47 -28 74 -52 89 -79 27 -48 27
-51 1 -51 -13 0 -46 -27 -88 -70 -36 -38 -70 -70 -74 -70 -13 0 -7 57 8 70 8
7 15 20 15 30 0 10 -7 23 -15 30 -11 9 -15 34 -15 96 0 46 3 84 6 84 3 0 36
-18 73 -40z m-271 -1 c29 -16 62 -44 72 -62 l20 -32 -103 -6 c-89 -5 -110 -10
-166 -39 -61 -30 -65 -31 -78 -14 -19 26 -17 30 28 79 49 54 125 105 153 105
12 0 45 -14 74 -31z m303 4 c13 -16 12 -17 -3 -4 -10 7 -18 15 -18 17 0 8 8 3
21 -13z m-6289 -263 l3 -65 -47 -3 -48 -3 0 68 c0 50 8 93 32 163 l32 95 12
-95 c7 -52 14 -124 16 -160z m5724 91 c26 -30 64 -55 142 -92 124 -59 142 -73
142 -108 l0 -26 -82 6 c-86 5 -85 5 -233 96 -33 20 -59 79 -69 161 l-7 53 36
-24 c20 -13 52 -43 71 -66z m-3104 39 c9 -17 24 -30 33 -30 12 0 15 -14 15
-75 0 -80 -3 -84 -49 -60 -57 29 -101 105 -101 173 0 19 5 22 43 22 36 0 44
-4 59 -30z m48 10 c0 -23 -10 -26 -28 -8 -18 18 -15 28 8 28 13 0 20 -7 20
-20z m1110 12 c0 -4 -5 -13 -12 -20 -18 -18 -28 -15 -28 8 0 13 7 20 20 20 11
0 20 -4 20 -8z m110 -14 c0 -68 -44 -144 -101 -173 -46 -24 -49 -20 -49 59 0
67 2 75 21 81 11 4 25 18 31 31 9 20 18 24 55 24 38 0 43 -3 43 -22z m-3150
-23 c23 -24 27 -25 160 -25 133 0 137 1 160 25 23 24 27 25 167 25 l143 0 0
-195 0 -195 -470 0 -470 0 0 195 0 195 143 0 c140 0 144 -1 167 -25z m305 5
c-16 -18 -31 -20 -137 -20 -105 0 -123 3 -145 20 l-26 20 163 0 c162 0 163 0
145 -20z m4445 -5 c19 -20 33 -25 72 -25 38 0 50 -4 54 -17 26 -87 41 -109 94
-140 l54 -33 -40 0 c-33 0 -50 -9 -107 -56 -37 -30 -67 -59 -67 -64 0 -4 30
-12 68 -17 55 -9 21 -11 -190 -12 l-258 -1 0 195 0 195 148 0 c145 0 149 -1
172 -25z m120 5 c0 -17 -7 -20 -43 -20 -31 0 -49 6 -62 20 -18 20 -17 20 43
20 55 0 62 -2 62 -20z m494 -2 c3 -13 6 -101 6 -195 0 -147 -2 -173 -15 -173
-8 0 -15 -4 -15 -10 0 -5 7 -10 15 -10 9 0 15 -9 15 -22 -1 -22 -1 -23 -15 -4
-19 25 -19 9 0 -24 16 -28 22 -320 6 -320 -5 0 -19 54 -32 121 -13 67 -25 116
-27 110 -2 -6 6 -56 17 -112 12 -56 21 -106 21 -110 0 -5 -205 -9 -455 -9
l-455 0 0 185 0 185 141 0 c136 0 142 -1 171 -25 28 -24 35 -25 163 -25 76 0
136 4 140 10 3 5 24 -4 47 -20 57 -42 83 -39 135 15 32 34 50 45 73 45 16 0
30 5 30 10 0 6 -13 10 -30 10 -32 0 -35 9 -21 60 7 24 7 24 20 -8 8 -18 17
-35 22 -38 11 -6 0 25 -18 51 -7 11 -13 40 -13 66 0 57 -5 62 -150 134 l-114
57 49 26 c56 29 107 39 211 41 66 1 72 -1 78 -21z m56 -3 c35 -18 38 -30 11
-45 -27 -14 -28 -14 -40 21 -16 47 -16 47 29 24z m299 -52 c-16 -36 -40 -79
-54 -95 -14 -16 -25 -35 -25 -42 0 -7 -23 -35 -51 -61 -36 -33 -55 -45 -67
-40 -19 8 -27 8 -63 0 -23 -6 -28 -2 -43 35 -21 52 -15 73 29 100 19 11 57 48
85 80 57 66 97 83 197 87 21 0 21 0 -8 -64z m18 -115 c-2 -24 -4 -7 -4 37 0
44 2 63 4 43 2 -21 2 -57 0 -80z m-307 90 c0 -5 -5 -8 -10 -8 -6 0 -8 -11 -4
-25 4 -17 -1 -33 -15 -51 l-21 -27 0 61 c0 58 1 60 25 58 14 0 25 -4 25 -8z
m287 -52 c-3 -7 -2 -49 2 -94 l7 -80 -36 -5 c-95 -14 -114 -22 -132 -53 -15
-25 -16 -37 -8 -59 12 -32 13 -30 -22 -39 l-27 -6 -4 77 -3 78 -1 -90 c-1 -49
3 -115 8 -145 10 -59 26 -190 31 -255 3 -42 5 -41 -47 -36 -11 1 -14 8 -10 29
5 27 5 27 -5 2 -14 -32 -24 -37 -60 -32 l-30 4 0 155 c0 100 3 152 10 148 6
-3 10 -2 10 4 0 5 -4 13 -10 16 -6 4 -10 63 -9 148 1 139 1 141 16 100 8 -24
19 -43 24 -43 5 0 10 -64 11 -142 l2 -143 3 135 c3 91 7 137 16 142 7 5 31 6
54 3 39 -6 44 -3 97 48 31 29 56 59 56 66 0 12 49 78 59 80 2 1 1 -5 -2 -13z
m-2711 -81 c-3 -20 -16 -31 -16 -13 0 13 8 28 16 28 1 0 1 -7 0 -15z m-3904
-24 c4 -29 4 -29 -41 -25 -25 2 -81 6 -124 8 -43 3 -86 10 -95 15 -14 9 -14
11 -2 11 36 3 115 12 117 14 1 1 33 3 72 4 l69 2 4 -29z m25 -18 c-3 -10 -5
-2 -5 17 0 19 2 27 5 18 2 -10 2 -26 0 -35z m139 22 c0 -14 -5 -25 -10 -26 -6
0 -28 -2 -48 -4 -36 -3 -38 -1 -38 26 0 28 2 29 48 29 45 0 48 -2 48 -25z
m234 4 c13 -7 13 -9 0 -10 -8 -1 -31 -4 -50 -6 -19 -3 -64 -6 -99 -7 -60 -1
-64 1 -67 22 l-4 23 102 -6 c57 -4 110 -11 118 -16z m5594 -27 c6 -4 45 -9 86
-12 71 -5 75 -6 78 -31 4 -32 -30 -110 -59 -138 -35 -32 -62 -26 -124 28 -57
50 -69 55 -172 67 -35 3 -63 10 -63 14 0 9 100 86 120 92 17 5 119 -10 134
-20z m-6114 -21 c172 -11 418 -4 514 15 28 6 29 5 22 -27 -3 -19 -9 -50 -12
-70 l-6 -36 -100 -12 c-108 -12 -138 -23 -138 -49 0 -9 16 -118 35 -241 19
-124 33 -227 31 -228 -12 -12 -221 -14 -284 -3 -115 19 -107 4 -163 331 -26
156 -51 296 -53 312 -5 24 -3 27 17 22 12 -3 74 -9 137 -14z m4049 -13 c-1
-18 -3 -25 -6 -15 -2 9 -9 17 -15 17 -6 0 -6 6 2 15 18 21 20 19 19 -17z
m-1024 3 c3 -5 2 -12 -3 -15 -5 -3 -9 1 -9 9 0 17 3 19 12 6z m985 -1 c0 -5
-2 -10 -4 -10 -3 0 -8 5 -11 10 -3 6 -1 10 4 10 6 0 11 -4 11 -10z m-290 -101
l0 -89 -232 2 -233 3 -3 87 -3 88 173 2 c95 2 201 1 236 0 l62 -4 0 -89z
m-490 65 c0 -23 -3 -25 -42 -22 -36 2 -44 7 -46 26 -3 20 1 22 42 22 43 0 46
-2 46 -26z m596 4 c-1 -20 -7 -23 -43 -26 -40 -3 -43 -1 -43 22 0 24 3 26 44
26 39 0 43 -2 42 -22z m99 12 c3 -6 -1 -7 -9 -4 -18 7 -21 14 -7 14 6 0 13 -4
16 -10z m57 3 c-6 -2 -10 -8 -8 -12 3 -4 -1 -8 -9 -8 -11 0 -12 4 -4 14 6 7
17 13 23 12 7 0 6 -2 -2 -6z m-975 -19 c-3 -3 -12 -4 -19 -1 -8 3 -5 6 6 6 11
1 17 -2 13 -5z m3909 -26 c26 -18 47 -37 45 -43 -5 -18 -134 -63 -164 -58 -21
4 -35 -1 -55 -19 -30 -28 -148 -62 -158 -46 -4 5 -1 20 6 33 10 18 10 31 1 56
-10 29 -9 37 7 58 19 25 22 26 137 40 121 14 130 13 181 -21z m-3906 2 c0 -5
-7 -7 -15 -4 -8 4 -15 8 -15 10 0 2 7 4 15 4 8 0 15 -4 15 -10z m55 0 c-3 -5
-12 -10 -18 -10 -7 0 -6 4 3 10 19 12 23 12 15 0z m1020 -30 c0 -24 -3 -25
-62 -28 l-63 -3 0 31 0 31 63 -3 c59 -3 62 -4 62 -28z m-855 -35 l0 -45 -50 0
c-53 0 -98 28 -84 53 18 32 30 37 80 37 l54 0 0 -45z m628 33 c18 -18 14 -56
-7 -68 -11 -5 -40 -10 -65 -10 l-46 0 0 45 0 45 53 0 c29 0 58 -5 65 -12z m82
2 c0 -5 -11 -10 -25 -10 -14 0 -25 5 -25 10 0 6 11 10 25 10 14 0 25 -4 25
-10z m-2920 -35 c23 -24 28 -25 157 -25 129 0 135 1 159 25 24 24 29 25 170
25 l144 0 -2 -182 -3 -183 -352 -3 -353 -2 0 27 c0 16 9 83 21 151 11 67 18
129 15 137 -7 19 -62 33 -176 43 l-95 9 146 2 c143 1 146 1 169 -24z m290 4
c-22 -19 -35 -20 -142 -17 -95 2 -121 6 -135 21 -16 16 -10 17 142 17 l160 -1
-25 -20z m4745 10 c13 -20 -6 -24 -120 -27 -89 -3 -119 0 -144 12 -17 9 -31
19 -31 21 0 11 289 5 295 -6z m-2985 -3 c0 -11 -19 -15 -25 -6 -3 5 1 10 9 10
9 0 16 -2 16 -4z m-2258 -16 c119 -12 153 -19 140 -32 -6 -6 -24 -6 -48 2 -92
26 -376 23 -566 -6 -23 -4 -38 -2 -38 4 0 31 317 51 512 32z m2203 -10 c3 -5
1 -10 -4 -10 -6 0 -11 5 -11 10 0 6 2 10 4 10 3 0 8 -4 11 -10z m-2125 -28
c39 -14 -73 -23 -288 -23 -210 1 -297 13 -177 25 39 4 79 9 90 11 37 7 350 -3
375 -13z m3130 8 c0 -5 -5 -10 -11 -10 -5 0 -7 5 -4 10 3 6 8 10 11 10 2 0 4
-4 4 -10z m-103 -6 c-3 -3 -12 -4 -19 -1 -8 3 -5 6 6 6 11 1 17 -2 13 -5z
m-817 -19 c7 -9 8 -15 2 -15 -5 0 -12 7 -16 15 -3 8 -4 15 -2 15 2 0 9 -7 16
-15z m3913 -2 c30 -8 14 -14 -59 -19 -38 -3 -74 -7 -80 -9 -9 -3 -12 25 -5 43
1 5 121 -8 144 -15z m-6608 -14 c151 -17 440 -8 540 17 19 5 26 3 21 -4 -20
-33 -363 -54 -544 -33 -113 13 -132 18 -132 33 0 6 8 7 18 3 9 -3 53 -11 97
-16z m6421 11 c8 0 11 -6 8 -15 -6 -15 -45 -21 -57 -9 -11 11 5 35 20 30 8 -3
21 -6 29 -6z m-259 -6 c-3 -3 -12 -4 -19 -1 -8 3 -5 6 6 6 11 1 17 -2 13 -5z
m-3490 -10 c-3 -3 -12 -4 -19 -1 -8 3 -5 6 6 6 11 1 17 -2 13 -5z m150 0 c-3
-3 -12 -4 -19 -1 -8 3 -5 6 6 6 11 1 17 -2 13 -5z m743 -2 c0 -4 -10 -13 -22
-21 -23 -14 -23 -14 -4 8 20 22 26 25 26 13z m-667 -22 c4 -16 14 -20 47 -20
33 0 43 4 47 20 3 11 12 20 19 20 16 0 17 -28 7 -196 l-6 -112 -81 -19 c-45
-11 -85 -17 -90 -12 -4 4 -6 27 -4 51 28 262 32 288 44 288 6 0 14 -9 17 -20z
m82 10 c4 -6 -5 -10 -19 -10 -14 0 -29 0 -33 -1 -4 0 -9 4 -11 10 -5 14 55 15
63 1z m133 -67 l-3 -78 -32 -3 -33 -3 0 80 0 81 35 0 36 0 -3 -77z m52 57 c0
-17 7 -20 46 -20 37 0 47 4 51 20 4 14 14 20 33 20 27 0 27 -1 23 -52 -2 -29
-8 -72 -14 -95 -14 -62 -11 -87 11 -116 23 -29 26 -69 7 -86 -10 -8 -34 -4
-93 16 -43 15 -80 27 -81 27 0 1 -4 70 -8 154 -7 137 -6 152 9 152 9 0 16 -8
16 -20z m80 10 c0 -5 -16 -10 -35 -10 -19 0 -35 5 -35 10 0 6 16 10 35 10 19
0 35 -4 35 -10z m3390 -5 c0 -43 -51 -466 -61 -502 -21 -79 -81 -112 -207
-113 -34 0 -54 4 -56 13 -2 6 -18 64 -36 127 -33 117 -47 140 -85 140 -20 0
-22 8 -33 116 -10 104 -10 120 6 152 15 31 24 37 68 47 28 6 105 12 170 13 66
1 142 6 169 11 28 5 53 9 58 10 4 0 7 -6 7 -14z m-6558 -15 c130 -8 363 0 436
16 21 4 32 3 32 -4 0 -11 -67 -444 -95 -619 -5 -29 -10 -33 -59 -44 -72 -16
-321 -8 -361 11 -33 17 -25 -19 -89 400 -42 274 -41 264 -18 255 9 -3 79 -10
154 -15z m6082 4 c3 -8 3 -27 -1 -42 -6 -24 -7 -25 -14 -7 -11 28 -11 65 0 65
5 0 12 -7 15 -16z m-2563 -7 c-6 -8 -7 -18 -3 -23 4 -4 -1 -2 -11 6 -18 14
-18 14 0 21 26 11 27 10 14 -4z m-973 -17 c7 -11 10 -20 6 -20 -7 0 -34 27
-34 34 0 13 16 5 28 -14z m33 7 c-7 -7 -14 -8 -21 -1 -6 6 -2 10 12 11 16 2
18 -1 9 -10z m175 4 c-4 -5 -1 -11 5 -13 7 -2 5 -9 -5 -17 -14 -12 -16 -12
-10 4 6 14 4 16 -7 10 -12 -8 -12 -6 0 8 14 18 26 23 17 8z m547 -12 c4 -16 3
-18 -9 -8 -7 6 -11 15 -8 20 8 13 11 11 17 -12z m47 6 c0 -8 -7 -15 -15 -15
-13 0 -14 3 -3 15 16 18 18 18 18 0z m-655 -5 c3 -5 1 -10 -4 -10 -6 0 -11 5
-11 10 0 6 2 10 4 10 3 0 8 -4 11 -10z m760 -18 c-3 -3 -11 0 -18 7 -9 10 -8
11 6 5 10 -3 15 -9 12 -12z m65 -14 c0 -6 -6 -5 -15 2 -8 7 -15 14 -15 16 0 2
7 1 15 -2 8 -4 15 -11 15 -16z m-870 8 c0 -3 -4 -8 -10 -11 -5 -3 -10 -1 -10
4 0 6 5 11 10 11 6 0 10 -2 10 -4z m29 -35 c-15 -5 -22 6 -14 19 6 9 10 9 16
-1 5 -8 4 -15 -2 -18z m51 25 c0 -3 -4 -8 -10 -11 -5 -3 -10 -1 -10 4 0 6 5
11 10 11 6 0 10 -2 10 -4z m27 -21 c0 -8 -4 -12 -9 -9 -4 3 -8 9 -8 15 0 5 4
9 8 9 5 0 9 -7 9 -15z m-173 -4 c4 -5 -3 -7 -14 -4 -23 6 -26 13 -6 13 8 0 17
-4 20 -9z m823 -25 c3 -6 3 -8 -2 -4 -4 4 -15 2 -23 -5 -13 -9 -14 -9 -8 1 4
6 2 12 -3 12 -6 0 -11 4 -11 9 0 12 39 2 47 -13z m64 -9 c-6 -8 -8 -17 -4 -20
3 -4 1 -7 -5 -7 -13 0 -16 22 -5 33 12 13 25 7 14 -6z m-821 -17 c0 -5 -9 -10
-19 -10 -11 0 -22 -6 -24 -12 -4 -10 -6 -10 -6 0 -1 10 22 25 47 31 1 1 2 -3
2 -9z m783 -4 c4 -10 1 -13 -8 -9 -8 3 -12 9 -9 14 7 12 11 11 17 -5z m-883
-15 c0 -5 -7 -12 -16 -15 -14 -5 -15 -4 -4 9 14 17 20 19 20 6z m795 -1 c3 -5
1 -10 -4 -10 -6 0 -11 5 -11 10 0 6 2 10 4 10 3 0 8 -4 11 -10z m-621 -6 c9
-3 16 -11 16 -16 0 -6 -7 -4 -17 3 -15 13 -16 11 -9 -16 5 -22 4 -26 -4 -15
-10 15 -14 50 -6 50 2 0 11 -3 20 -6z m326 -60 l0 -65 -47 3 -48 3 -3 63 -3
62 51 0 50 0 0 -66z m-455 35 c-4 -5 -12 -9 -18 -8 -9 0 -8 2 1 6 6 2 9 10 6
15 -4 7 -2 8 5 4 6 -4 9 -12 6 -17z m835 7 c0 -2 -7 -7 -16 -10 -8 -3 -12 -2
-9 4 6 10 25 14 25 6z m-140 -21 c0 -2 -6 -8 -13 -14 -10 -8 -14 -7 -14 2 0 8
6 14 14 14 7 0 13 -1 13 -2z m160 -41 c0 -8 -4 -12 -10 -9 -5 3 -10 10 -10 16
0 5 5 9 10 9 6 0 10 -7 10 -16z m-901 -20 c12 -15 21 -35 21 -44 0 -30 23 -41
58 -29 36 13 104 8 109 -7 2 -6 -37 -26 -88 -44 l-92 -34 -18 22 c-9 12 -21
22 -25 22 -4 0 3 -11 16 -25 13 -14 19 -25 13 -25 -14 0 -73 67 -73 82 0 6 10
3 23 -8 l22 -19 -22 26 c-27 30 -29 65 -6 91 22 25 38 23 62 -8z m781 16 c0
-5 -2 -10 -4 -10 -3 0 -8 5 -11 10 -3 6 -1 10 4 10 6 0 11 -4 11 -10z m214 -6
c21 -21 20 -72 -1 -98 -17 -20 -17 -20 0 -7 9 7 17 10 17 5 0 -13 -52 -84 -62
-84 -9 0 -5 11 16 40 6 9 0 5 -13 -9 l-23 -25 -47 18 c-25 10 -67 25 -93 34
-64 21 -61 35 3 16 61 -18 74 -15 83 21 9 36 67 105 88 105 9 0 24 -7 32 -16z
m2365 -23 c0 -23 -1 -24 -9 -6 -5 11 -9 15 -9 9 -1 -7 5 -25 12 -40 12 -29 13
-29 92 -28 44 0 91 -3 105 -7 14 -4 -36 -7 -110 -7 -105 0 -129 3 -110 11 l25
10 -24 5 c-55 9 -67 -3 -96 -95 -15 -48 -32 -111 -38 -140 l-11 -53 -383 0
-383 0 2 183 3 182 138 3 139 3 34 -31 c34 -30 35 -30 154 -30 118 0 120 0
153 30 33 29 36 29 163 32 71 2 135 1 142 -1 6 -2 12 -15 11 -30z m-5369 -1
l28 -30 126 0 c125 0 125 0 159 30 l35 30 141 0 141 0 0 -185 0 -185 -385 0
c-373 0 -385 1 -385 19 0 11 11 91 25 178 14 87 25 161 25 166 0 4 14 7 31 7
22 0 40 -9 59 -30z m305 10 c-16 -18 -31 -20 -145 -20 -114 0 -129 2 -145 20
-18 20 -17 20 145 20 162 0 163 0 145 -20z m2518 7 c3 -8 2 -20 -3 -26 -5 -9
-7 -4 -7 13 0 29 2 32 10 13z m2222 -7 c-16 -18 -31 -20 -145 -20 -114 0 -129
2 -145 20 -18 20 -17 20 145 20 162 0 163 0 145 -20z m-2885 -5 c0 -8 -2 -15
-4 -15 -2 0 -6 7 -10 15 -3 8 -1 15 4 15 6 0 10 -7 10 -15z m-30 -25 c0 -4 -7
-11 -16 -14 -13 -5 -14 -4 -6 7 7 8 8 18 4 22 -4 5 -1 5 6 1 6 -4 12 -11 12
-16z m725 10 c3 -5 1 -10 -4 -10 -6 0 -11 5 -11 10 0 6 2 10 4 10 3 0 8 -4 11
-10z m-254 -39 c84 -29 642 -242 659 -252 49 -28 -46 5 -340 116 -182 69 -343
128 -358 131 -16 3 -35 -1 -46 -9 -18 -13 -20 -31 -24 -208 -2 -107 -7 -198
-12 -203 -5 -5 -15 -6 -24 -3 -12 5 -15 38 -18 202 -3 183 -4 198 -23 211 -12
9 -31 13 -48 10 -15 -3 -176 -62 -358 -131 -296 -112 -385 -143 -339 -116 13
8 589 229 675 259 51 18 195 14 256 -7z m266 -13 c-3 -8 -6 -5 -6 6 -1 11 2
17 5 13 3 -3 4 -12 1 -19z m48 -133 c182 -68 339 -125 350 -127 15 -2 20 -12
21 -36 1 -18 -2 -35 -7 -37 -13 -9 -37 6 -42 25 -4 14 -62 32 -318 94 -173 41
-334 77 -359 78 l-45 3 -3 51 c-3 60 16 89 52 78 11 -3 170 -61 351 -129z
m-501 109 c3 -9 6 -38 6 -65 l0 -49 -49 0 c-27 0 -188 -34 -361 -76 -285 -70
-312 -78 -322 -100 -17 -36 -42 -26 -46 17 -3 32 0 37 20 37 13 1 169 57 348
126 323 123 392 142 404 110z m3225 -111 c34 -112 39 -173 16 -217 -32 -61
-89 -84 -210 -85 -75 -1 -98 3 -135 22 -94 48 -107 102 -60 266 l33 116 163 0
162 0 31 -102z m-6076 -209 c93 -6 216 5 262 22 13 5 16 2 13 -17 -5 -38 -74
-51 -248 -46 -163 5 -210 16 -210 52 0 22 1 22 41 9 22 -8 86 -17 142 -20z
m2111 -53 c-8 -53 -9 -55 -23 -46 -6 3 -11 28 -11 55 0 44 2 48 20 43 19 -5
20 -11 14 -52z m1616 17 c0 -46 -8 -68 -26 -68 -10 0 -14 12 -14 39 0 22 -2
45 -5 53 -4 9 3 13 20 13 22 0 25 -4 25 -37z m-1668 -56 c2 -28 0 -52 -3 -52
-10 0 -18 82 -11 115 7 33 9 24 14 -63z m86 18 c0 -38 -4 -70 -9 -70 -10 0
-12 123 -2 133 3 4 7 7 8 7 1 0 2 -31 3 -70z m1528 35 c7 -37 -2 -105 -14
-105 -4 0 -7 32 -7 70 0 75 10 92 21 35z m84 -29 c0 -36 -5 -68 -10 -71 -8 -5
-10 16 -8 64 4 89 18 94 18 7z m-113 -33 c-2 -16 -4 -3 -4 27 0 30 2 43 4 28
2 -16 2 -40 0 -55z m-1480 0 c-2 -16 -4 -5 -4 22 0 28 2 40 4 28 2 -13 2 -35
0 -50z m767 -12 c-1 -38 -10 -50 -34 -44 -15 4 -20 14 -20 42 0 35 2 37 28 34
22 -4 27 -9 26 -32z m3 -98 c-4 -40 -21 -74 -30 -62 -3 2 -7 27 -11 54 -6 49
-5 50 20 52 25 1 26 -1 21 -44z m33 -28 c0 -35 -4 -67 -10 -70 -6 -4 -9 22 -7
69 2 90 17 91 17 1z m-94 30 c7 -37 -2 -105 -14 -105 -4 0 -7 32 -7 70 0 75
10 92 21 35z m-29 -52 c-2 -16 -4 -5 -4 22 0 28 2 40 4 28 2 -13 2 -35 0 -50z"/>
<path d="M4220 3959 c-342 -30 -503 -130 -462 -285 6 -23 76 -181 156 -350
l144 -309 1 -214 c2 -239 7 -262 66 -287 50 -20 590 -20 640 0 60 25 65 49 65
288 l0 213 150 320 c92 197 152 338 156 366 12 84 -43 151 -161 197 -152 59
-475 85 -755 61z m618 -37 c86 -19 196 -63 233 -94 53 -45 64 -110 31 -193
-29 -72 -252 -548 -263 -560 -5 -5 -9 17 -9 55 0 45 5 69 17 82 9 10 12 18 7
18 -5 0 -76 -58 -159 -130 l-150 -129 -3 37 c-3 32 1 40 35 67 227 181 470
467 504 595 11 40 10 51 -8 91 -31 70 -81 90 -216 90 -58 0 -151 -8 -208 -17
-132 -21 -276 -21 -408 0 -58 9 -153 17 -212 17 -117 1 -173 -17 -205 -66 -31
-48 -30 -100 5 -169 70 -138 282 -382 441 -506 75 -60 80 -66 80 -102 0 -21
-2 -38 -5 -38 -3 0 -68 55 -146 123 -137 119 -190 160 -161 124 14 -17 24
-153 10 -139 -15 15 -276 589 -282 620 -19 104 94 188 306 226 126 23 144 24
418 21 210 -3 271 -7 348 -23z m-568 -107 c100 -16 212 -20 269 -10 14 2 49 6
76 10 28 3 75 9 105 14 95 15 240 9 283 -13 88 -43 89 -129 5 -257 -30 -46
-64 -94 -74 -106 -10 -12 -32 -39 -49 -60 -77 -98 -314 -319 -334 -311 -5 1
-1 30 10 63 21 67 24 117 9 146 -27 50 -149 69 -216 33 -58 -32 -61 -69 -15
-221 10 -33 -1 -45 -16 -20 -4 8 -16 18 -26 23 -37 20 -156 137 -150 147 3 5
2 7 -4 4 -20 -13 -208 207 -280 328 -55 93 -59 119 -31 175 13 25 27 43 32 42
5 -2 12 2 16 8 20 32 202 34 390 5z m233 -496 c28 -8 42 -19 54 -45 16 -32 16
-38 -8 -117 -24 -82 -26 -116 -18 -277 3 -72 1 -92 -18 -130 l-21 -45 -1 239
c-1 208 -3 242 -18 258 -20 22 -31 23 -55 1 -16 -15 -18 -36 -18 -257 0 -132
-4 -236 -8 -230 -5 5 -17 31 -26 57 -15 39 -17 63 -10 130 10 116 7 177 -16
249 -11 35 -20 74 -20 88 0 70 85 106 183 79z m-37 -130 c3 -6 7 -138 8 -293
1 -234 -2 -286 -14 -301 -13 -16 -15 -16 -32 5 -16 20 -18 48 -18 292 0 166 4
277 10 289 12 21 35 25 46 8z m353 -291 c-1 -242 -3 -299 -16 -326 -24 -50
-32 -52 -195 -58 l-117 -4 11 24 c6 15 8 39 3 63 -11 50 -8 66 22 147 24 65
32 143 18 186 -4 12 15 35 62 76 37 32 83 73 101 89 19 17 41 34 50 39 10 6
25 20 35 33 10 13 20 23 22 23 2 0 4 -132 4 -292z m-614 172 c149 -126 141
-115 134 -185 -5 -46 -3 -71 12 -109 10 -27 16 -53 13 -58 -3 -4 -1 -8 5 -8
16 0 29 -62 19 -88 -11 -32 -10 -79 2 -87 31 -19 -1 -25 -119 -21 -142 4 -172
14 -190 67 -6 17 -10 148 -11 316 0 273 0 286 17 272 10 -9 63 -53 118 -99z
m246 -500 c5 0 12 7 15 15 10 25 24 17 24 -14 0 -37 -34 -65 -61 -50 -26 13
-39 42 -32 68 l6 22 19 -21 c10 -11 23 -20 29 -20z"/>
<path d="M6812 3707 c-12 -13 -22 -33 -22 -46 0 -32 43 -71 77 -70 26 1 26 2
-7 9 -38 9 -60 33 -60 65 0 51 81 74 120 35 11 -11 20 -16 20 -11 0 17 -44 41
-75 41 -20 0 -40 -9 -53 -23z"/>
<path d="M6858 3685 c-6 -31 4 -45 32 -45 13 1 12 3 -2 13 -9 7 -18 24 -20 37
-3 24 -4 23 -10 -5z"/>
<path d="M6915 3620 c-10 -11 -13 -20 -8 -20 13 0 38 29 31 35 -3 3 -13 -4
-23 -15z"/>
<path d="M6207 3609 c15 -15 81 -15 96 0 8 8 1 8 -22 1 -21 -6 -42 -5 -59 1
-22 8 -25 8 -15 -2z"/>
<path d="M2310 3634 c0 -6 7 -19 16 -30 14 -18 14 -18 3 6 -14 31 -19 36 -19
24z"/>
<path d="M2410 3544 c0 -6 7 -19 16 -30 14 -18 14 -18 3 6 -14 31 -19 36 -19
24z"/>
<path d="M2754 3452 c-72 -26 -142 -55 -155 -64 l-24 -17 30 0 c47 0 300 92
300 108 0 8 -4 16 -10 17 -5 1 -69 -18 -141 -44z m134 23 c-3 -3 -65 -26 -139
-50 -73 -25 -128 -40 -123 -35 6 6 62 28 125 49 107 37 149 48 137 36z"/>
<path d="M3318 3454 c-21 -13 -38 -31 -38 -39 0 -13 25 -15 158 -15 141 0 161
2 175 18 10 10 17 28 17 40 0 22 -3 22 -137 21 -129 0 -140 -2 -175 -25z m296
-1 c9 -23 -22 -28 -164 -23 -144 5 -145 5 -115 23 25 14 50 17 152 15 83 -2
124 -7 127 -15z m-101 -40 c-40 -2 -106 -2 -145 0 -40 1 -8 3 72 3 80 0 112
-2 73 -3z"/>
<path d="M5596 3474 c-78 -65 -75 -74 27 -74 l83 0 47 48 c26 26 47 53 47 60
0 8 -23 12 -74 12 -73 0 -74 0 -130 -46z m181 28 c9 -6 1 -19 -27 -47 -22 -21
-42 -36 -45 -33 -3 3 11 20 31 37 20 18 34 34 32 36 -2 3 -20 -11 -38 -30 -32
-33 -38 -35 -99 -35 l-66 0 45 40 c41 35 50 39 100 39 30 1 61 -3 67 -7z
m-119 -89 c-21 -2 -55 -2 -75 0 -21 2 -4 4 37 4 41 0 58 -2 38 -4z"/>
<path d="M5278 3489 c-20 -11 -23 -41 -8 -69 13 -25 74 -43 116 -36 52 10 72
66 36 99 -21 19 -116 23 -144 6z m140 -38 c3 -15 -3 -30 -14 -38 -39 -29 -124
-4 -124 36 0 28 10 32 75 29 55 -3 60 -5 63 -27z"/>
<path d="M7043 3471 c-10 -16 -9 -19 5 -17 9 2 16 6 15 10 -6 23 -9 24 -20 7z"/>
<path d="M5863 3456 c26 -20 223 -70 243 -62 10 4 14 10 8 15 -14 13 -201 61
-237 61 -29 -1 -30 -2 -14 -14z m139 -22 c54 -15 97 -29 94 -31 -5 -5 -195 43
-203 51 -11 10 7 7 109 -20z"/>
<path d="M6890 2596 c0 -2 8 -10 18 -17 15 -13 16 -12 3 4 -13 16 -21 21 -21
13z"/>
<path d="M7251 2235 c0 -5 6 -32 13 -60 8 -27 14 -41 14 -30 0 21 -25 107 -27
90z"/>
<path d="M7381 2080 c0 -8 4 -22 9 -30 12 -18 12 -2 0 25 -6 13 -9 15 -9 5z"/>
<path d="M7408 2033 c-2 -5 -1 -60 2 -123 l6 -115 2 123 c2 110 0 136 -10 115z"/>
<path d="M7477 1953 c-3 -27 -8 -59 -11 -73 -5 -21 -5 -22 3 -5 7 16 10 12 13
-25 3 -25 5 -1 6 53 1 53 0 97 -2 97 -2 0 -6 -21 -9 -47z"/>
<path d="M4175 4975 c-14 -13 -25 -34 -25 -47 1 -20 2 -19 14 8 8 17 24 39 37
48 13 9 18 16 11 16 -7 0 -24 -11 -37 -25z"/>
<path d="M6110 4411 c0 -6 4 -13 10 -16 6 -3 7 1 4 9 -7 18 -14 21 -14 7z"/>
<path d="M5755 4089 l-40 -18 53 -1 c45 0 52 3 52 20 0 24 -13 24 -65 -1z m55
1 c0 -5 -8 -10 -17 -10 -15 0 -16 2 -3 10 19 12 20 12 20 0z"/>
</g>
</svg>
